%TF.GenerationSoftware,Altium Limited,Altium Designer,18.1.9 (240)*%
G04 Layer_Color=16711935*
%FSLAX43Y43*%
%MOMM*%
%TF.FileFunction,Soldermask,Bot*%
%TF.Part,Single*%
G01*
G75*
%TA.AperFunction,SMDPad,CuDef*%
%ADD11R,1.150X1.800*%
%TA.AperFunction,ComponentPad*%
%ADD37R,2.250X2.250*%
%ADD38C,2.250*%
%ADD39C,1.470*%
%ADD40R,2.250X2.250*%
%ADD41C,1.600*%
%ADD42R,1.600X1.600*%
%ADD43C,1.650*%
%ADD44R,1.650X1.650*%
%ADD45R,1.800X1.800*%
%ADD46C,1.800*%
%TA.AperFunction,ViaPad*%
%ADD48C,3.500*%
%ADD49C,1.500*%
%ADD50C,1.270*%
D11*
X4469Y23283D02*
D03*
X7469D02*
D03*
X4469Y19939D02*
D03*
X7469D02*
D03*
X4469Y26628D02*
D03*
X7469D02*
D03*
X4469Y29972D02*
D03*
X7469D02*
D03*
X104926Y20701D02*
D03*
X101926D02*
D03*
X104926Y23749D02*
D03*
X101926D02*
D03*
X104926Y26797D02*
D03*
X101926D02*
D03*
X104926Y29845D02*
D03*
X101926D02*
D03*
D37*
X3596Y8270D02*
D03*
X100918Y8382D02*
D03*
X45151Y8762D02*
D03*
D38*
X8596Y8270D02*
D03*
X8509Y38227D02*
D03*
X100918Y43100D02*
D03*
X105918Y8382D02*
D03*
X54671Y8762D02*
D03*
D39*
X12279Y21414D02*
D03*
Y23114D02*
D03*
Y24824D02*
D03*
Y26524D02*
D03*
Y28224D02*
D03*
X97028Y21814D02*
D03*
Y23514D02*
D03*
Y25214D02*
D03*
Y26924D02*
D03*
Y28624D02*
D03*
D40*
X8509Y43227D02*
D03*
X100918Y38100D02*
D03*
D41*
X27432Y61722D02*
D03*
Y64262D02*
D03*
Y69342D02*
D03*
Y66802D02*
D03*
X40075Y51662D02*
D03*
Y49122D02*
D03*
D42*
X27432Y71882D02*
D03*
D43*
X38862Y32654D02*
D03*
X41402D02*
D03*
X38862Y35194D02*
D03*
X41402D02*
D03*
X46482Y32654D02*
D03*
Y35194D02*
D03*
X54102Y32654D02*
D03*
Y35194D02*
D03*
X56642Y32654D02*
D03*
Y35194D02*
D03*
X61722Y32654D02*
D03*
X59182Y35194D02*
D03*
Y32654D02*
D03*
X51562Y35194D02*
D03*
Y32654D02*
D03*
X49022Y35194D02*
D03*
Y32654D02*
D03*
X43942Y35194D02*
D03*
Y32654D02*
D03*
D44*
X61722Y35194D02*
D03*
D45*
X86821Y10421D02*
D03*
Y5421D02*
D03*
D46*
X91821Y10421D02*
D03*
Y5421D02*
D03*
D48*
X70000Y7000D02*
D03*
X25000D02*
D03*
X15000Y70000D02*
D03*
X95000D02*
D03*
D49*
X93237Y23514D02*
D03*
X45212Y21971D02*
D03*
X20682Y26524D02*
D03*
X99187Y26924D02*
D03*
X10287Y23114D02*
D03*
D50*
X66018Y69803D02*
D03*
X68299D02*
D03*
X68304Y72089D02*
D03*
X66018D02*
D03*
X67183Y70993D02*
D03*
%TF.MD5,36ffb1e528b15cd16252766a16267c62*%
M02*
