%TF.GenerationSoftware,Altium Limited,Altium Designer,18.1.9 (240)*%
G04 Layer_Physical_Order=1*
G04 Layer_Color=255*
%FSLAX43Y43*%
%MOMM*%
%TF.FileFunction,Copper,L1,Top,Signal*%
%TF.Part,Single*%
G01*
G75*
%TA.AperFunction,SMDPad,CuDef*%
%ADD10R,0.950X1.350*%
%ADD11R,1.150X1.800*%
%ADD12R,0.800X2.500*%
%ADD13R,1.400X2.000*%
%ADD14R,0.800X0.900*%
%ADD15R,1.400X1.050*%
%ADD16R,1.050X1.400*%
%ADD17R,1.350X0.950*%
%ADD18R,1.470X0.550*%
%ADD19R,0.550X1.470*%
%ADD20R,1.900X0.800*%
%ADD21R,0.800X1.900*%
%ADD22R,3.700X3.700*%
%ADD23R,2.500X0.800*%
%ADD24R,1.800X1.150*%
G04:AMPARAMS|DCode=25|XSize=0.4mm|YSize=0.85mm|CornerRadius=0.05mm|HoleSize=0mm|Usage=FLASHONLY|Rotation=270.000|XOffset=0mm|YOffset=0mm|HoleType=Round|Shape=RoundedRectangle|*
%AMROUNDEDRECTD25*
21,1,0.400,0.750,0,0,270.0*
21,1,0.300,0.850,0,0,270.0*
1,1,0.100,-0.375,-0.150*
1,1,0.100,-0.375,0.150*
1,1,0.100,0.375,0.150*
1,1,0.100,0.375,-0.150*
%
%ADD25ROUNDEDRECTD25*%
%ADD26R,2.400X1.800*%
%ADD27R,2.790X2.920*%
%ADD28O,2.200X0.600*%
%TA.AperFunction,Conductor*%
%ADD29C,2.000*%
%ADD30C,0.200*%
%ADD31C,0.500*%
%ADD32C,0.254*%
%ADD33C,0.300*%
%ADD34C,1.500*%
%ADD35C,0.400*%
%TA.AperFunction,NonConductor*%
%ADD36C,0.254*%
%TA.AperFunction,ComponentPad*%
%ADD37R,2.250X2.250*%
%ADD38C,2.250*%
%ADD39C,1.470*%
%ADD40R,2.250X2.250*%
%ADD41C,1.600*%
%ADD42R,1.600X1.600*%
%ADD43C,1.650*%
%ADD44R,1.650X1.650*%
%ADD45R,1.800X1.800*%
%ADD46C,1.800*%
%TA.AperFunction,ViaPad*%
%ADD47C,0.710*%
%ADD48C,3.500*%
%ADD49C,1.500*%
%ADD50C,1.270*%
G36*
X109219Y255D02*
X255D01*
X255Y80645D01*
X57851Y80645D01*
X57940Y80555D01*
X57933Y78397D01*
X56724D01*
Y76697D01*
X57838D01*
X57927Y76607D01*
X57911Y71684D01*
X52292D01*
X52219Y71793D01*
X52052Y71905D01*
X51855Y71944D01*
X51658Y71905D01*
X51491Y71793D01*
X51379Y71626D01*
X51340Y71429D01*
X51379Y71232D01*
X51491Y71065D01*
X51658Y70953D01*
X51855Y70914D01*
X52052Y70953D01*
X52219Y71065D01*
X52292Y71174D01*
X57820D01*
X57909Y71084D01*
X57908Y70690D01*
X54941D01*
X54843Y70670D01*
X54761Y70615D01*
X50875Y66729D01*
X50819Y66647D01*
X50800Y66549D01*
Y60068D01*
X50728Y60013D01*
X50679Y59997D01*
X50616Y60039D01*
X50419Y60078D01*
X50222Y60039D01*
X50055Y59927D01*
X50013Y59865D01*
X49861D01*
X49819Y59927D01*
X49652Y60039D01*
X49455Y60078D01*
X49258Y60039D01*
X49091Y59927D01*
X48979Y59760D01*
X48940Y59563D01*
X48979Y59366D01*
X49091Y59199D01*
X49200Y59126D01*
Y56593D01*
X49030D01*
Y54823D01*
X53047D01*
Y51345D01*
X52920Y51306D01*
X52775Y51403D01*
X52578Y51442D01*
X52381Y51403D01*
X52214Y51291D01*
X52141Y51182D01*
X50122D01*
X49531Y51773D01*
Y53704D01*
X49511Y53802D01*
X49456Y53884D01*
X49122Y54218D01*
X49040Y54273D01*
X48942Y54293D01*
X48670D01*
Y54463D01*
X46900D01*
Y53493D01*
X45928D01*
X45574Y53846D01*
X45600Y53975D01*
X45561Y54172D01*
X45449Y54339D01*
X45282Y54451D01*
X45085Y54490D01*
X44888Y54451D01*
X44721Y54339D01*
X44609Y54172D01*
X44570Y53975D01*
X44609Y53778D01*
X44721Y53611D01*
X44888Y53499D01*
X45085Y53460D01*
X45214Y53486D01*
X45642Y53058D01*
X45724Y53003D01*
X45822Y52983D01*
X46900D01*
Y52693D01*
X45077D01*
X43868Y53901D01*
X43786Y53956D01*
X43688Y53976D01*
X42252D01*
Y54396D01*
X40552D01*
Y53976D01*
X40093D01*
Y54396D01*
X38393D01*
Y53938D01*
X37909D01*
Y54308D01*
X36259D01*
Y53058D01*
X37909D01*
Y53428D01*
X38393D01*
Y53046D01*
X40093D01*
Y53466D01*
X40552D01*
Y53046D01*
X42252D01*
Y53466D01*
X43582D01*
X44791Y52258D01*
X44873Y52203D01*
X44971Y52183D01*
X46900D01*
Y51917D01*
X40998D01*
X40905Y52141D01*
X40753Y52340D01*
X40554Y52492D01*
X40323Y52588D01*
X40075Y52620D01*
X39827Y52588D01*
X39596Y52492D01*
X39397Y52340D01*
X39245Y52141D01*
X39152Y51917D01*
X37172D01*
Y52425D01*
X35472D01*
Y51982D01*
X35115D01*
Y52352D01*
X33465D01*
Y51102D01*
X35115D01*
Y51472D01*
X35472D01*
Y51075D01*
X37172D01*
Y51407D01*
X39152D01*
X39245Y51183D01*
X39397Y50984D01*
X39556Y50863D01*
X39513Y50736D01*
X38740D01*
X38642Y50716D01*
X38560Y50661D01*
X38117Y50218D01*
X38062Y50136D01*
X38042Y50038D01*
Y45847D01*
X38062Y45749D01*
X38117Y45667D01*
X40776Y43007D01*
X40760Y42926D01*
X40799Y42729D01*
X40911Y42562D01*
X41078Y42450D01*
X41275Y42411D01*
X41472Y42450D01*
X41639Y42562D01*
X41751Y42729D01*
X41790Y42926D01*
X41751Y43123D01*
X41639Y43290D01*
X41472Y43402D01*
X41275Y43441D01*
X41099Y43406D01*
X38552Y45953D01*
Y49932D01*
X38846Y50226D01*
X41783D01*
X41881Y50246D01*
X41963Y50301D01*
X42302Y50639D01*
X43822D01*
Y50446D01*
X42533D01*
X42533Y50446D01*
X42377Y50415D01*
X42245Y50326D01*
X42245Y50326D01*
X41448Y49530D01*
X40934D01*
X40905Y49601D01*
X40753Y49800D01*
X40554Y49952D01*
X40323Y50048D01*
X40075Y50080D01*
X39827Y50048D01*
X39596Y49952D01*
X39397Y49800D01*
X39245Y49601D01*
X39149Y49370D01*
X39117Y49122D01*
X39149Y48874D01*
X39245Y48643D01*
X39397Y48444D01*
X39596Y48292D01*
X39827Y48196D01*
X40075Y48164D01*
X40323Y48196D01*
X40554Y48292D01*
X40753Y48444D01*
X40905Y48643D01*
X40934Y48714D01*
X41617D01*
X41617Y48714D01*
X41773Y48745D01*
X41905Y48834D01*
X42702Y49630D01*
X43822D01*
Y49413D01*
X45472D01*
Y49630D01*
X46850D01*
Y49338D01*
X48720D01*
Y49630D01*
X53298D01*
X53847Y49081D01*
Y45303D01*
X53555D01*
Y44368D01*
Y43433D01*
X53847D01*
Y42608D01*
X53458D01*
Y40958D01*
X54642D01*
X54695Y40831D01*
X54161Y40298D01*
X52559D01*
X52461Y40278D01*
X52379Y40223D01*
X48855Y36699D01*
X48800Y36617D01*
X48780Y36519D01*
Y36146D01*
X48767Y36144D01*
X48530Y36046D01*
X48327Y35889D01*
X48170Y35686D01*
X48143Y35619D01*
X48016Y35645D01*
Y37876D01*
X49635Y39496D01*
X49690Y39578D01*
X49710Y39676D01*
Y43483D01*
X50000D01*
Y40747D01*
X50020Y40649D01*
X50075Y40567D01*
X50233Y40409D01*
X50228Y40386D01*
X50267Y40189D01*
X50379Y40022D01*
X50546Y39910D01*
X50743Y39871D01*
X50940Y39910D01*
X51107Y40022D01*
X51219Y40189D01*
X51258Y40386D01*
X51219Y40583D01*
X51107Y40750D01*
X50940Y40862D01*
X50743Y40901D01*
X50637Y40880D01*
X50510Y40979D01*
Y43483D01*
X52980D01*
Y43433D01*
X53355D01*
Y44368D01*
Y45303D01*
X52980D01*
Y45253D01*
X49030D01*
Y43483D01*
X49200D01*
Y39782D01*
X47581Y38162D01*
X47526Y38080D01*
X47506Y37982D01*
Y35601D01*
X47379Y35576D01*
X47334Y35686D01*
X47177Y35889D01*
X46974Y36046D01*
X46737Y36144D01*
Y40534D01*
X47965Y41763D01*
X48020Y41845D01*
X48040Y41943D01*
Y45613D01*
X48670D01*
Y46413D01*
Y47213D01*
Y48013D01*
Y48763D01*
X48720D01*
Y49138D01*
X46850D01*
Y48763D01*
X46752Y48693D01*
X46374D01*
X46276Y48673D01*
X46194Y48618D01*
X45639Y48064D01*
X45522Y48112D01*
Y48338D01*
X44747D01*
Y47763D01*
X45173D01*
X45221Y47646D01*
X44429Y46854D01*
X44374Y46771D01*
X44354Y46673D01*
Y38670D01*
X42492Y36807D01*
X42437Y36725D01*
X42417Y36627D01*
Y35623D01*
X42290Y35598D01*
X42254Y35686D01*
X42097Y35889D01*
X41894Y36046D01*
X41657Y36144D01*
Y37592D01*
X41637Y37690D01*
X41582Y37772D01*
X32513Y46842D01*
Y53234D01*
X36809Y57530D01*
X40407D01*
X41147Y56790D01*
Y56296D01*
X40552D01*
Y54946D01*
X42252D01*
Y56296D01*
X41657D01*
Y56896D01*
X41637Y56994D01*
X41582Y57076D01*
X40693Y57965D01*
X40611Y58020D01*
X40513Y58040D01*
X36703D01*
X36605Y58020D01*
X36523Y57965D01*
X32078Y53520D01*
X32022Y53438D01*
X32003Y53340D01*
Y46736D01*
X32022Y46638D01*
X32078Y46556D01*
X41147Y37486D01*
Y36144D01*
X40910Y36046D01*
X40707Y35889D01*
X40550Y35686D01*
X40452Y35449D01*
X40419Y35194D01*
X40452Y34939D01*
X40550Y34703D01*
X39952Y34104D01*
X39896Y34022D01*
X39877Y33924D01*
Y33083D01*
X39750Y33058D01*
X39714Y33146D01*
X39557Y33349D01*
X39354Y33506D01*
X39117Y33604D01*
X38862Y33637D01*
X38607Y33604D01*
X38370Y33506D01*
X38167Y33349D01*
X38010Y33146D01*
X37912Y32909D01*
X37879Y32654D01*
X37912Y32399D01*
X38010Y32162D01*
X38167Y31959D01*
X38370Y31802D01*
X38607Y31704D01*
X38862Y31671D01*
X39117Y31704D01*
X39354Y31802D01*
X39557Y31959D01*
X39714Y32162D01*
X39750Y32250D01*
X39877Y32225D01*
Y25913D01*
X39750Y25875D01*
X39749Y25876D01*
X39582Y25988D01*
X39385Y26027D01*
X39188Y25988D01*
X39021Y25876D01*
X38909Y25709D01*
X38870Y25512D01*
X38909Y25315D01*
X39021Y25148D01*
X39130Y25075D01*
Y24115D01*
X39150Y24017D01*
X39205Y23935D01*
X42544Y20595D01*
Y16757D01*
X42564Y16660D01*
X42619Y16577D01*
X43691Y15505D01*
X43773Y15450D01*
X43871Y15430D01*
X43904D01*
X44015Y15303D01*
X43991Y15120D01*
Y10037D01*
X43876D01*
Y7487D01*
X46426D01*
Y10037D01*
X46311D01*
Y15120D01*
X46271Y15420D01*
X46235Y15508D01*
Y15776D01*
X46434Y15974D01*
X47009D01*
X47074Y15868D01*
X47055Y15810D01*
X47053Y15807D01*
X47037Y15729D01*
Y15429D01*
X47053Y15351D01*
X47097Y15285D01*
X47163Y15241D01*
X47241Y15225D01*
X47991D01*
X48069Y15241D01*
X48135Y15285D01*
X48161Y15324D01*
X48599D01*
X48697Y15344D01*
X48779Y15399D01*
X48948Y15568D01*
X49003Y15650D01*
X49023Y15748D01*
Y23368D01*
X49003Y23466D01*
X48948Y23548D01*
X44050Y28446D01*
X44076Y28575D01*
X44037Y28772D01*
X43925Y28939D01*
X43758Y29051D01*
X43561Y29090D01*
X43364Y29051D01*
X43197Y28939D01*
X43085Y28772D01*
X43046Y28575D01*
X43085Y28378D01*
X43197Y28211D01*
X43364Y28099D01*
X43561Y28060D01*
X43690Y28086D01*
X48513Y23262D01*
Y15854D01*
X48493Y15834D01*
X48223D01*
X48158Y15940D01*
X48177Y15998D01*
X48179Y16001D01*
X48195Y16079D01*
Y16379D01*
X48179Y16457D01*
X48135Y16523D01*
Y16585D01*
X48179Y16651D01*
X48195Y16729D01*
Y17029D01*
X48179Y17107D01*
X48135Y17173D01*
X48069Y17217D01*
X47991Y17233D01*
X47871D01*
Y17662D01*
X47851Y17760D01*
X47796Y17842D01*
X47472Y18166D01*
X47390Y18221D01*
X47292Y18241D01*
X46372D01*
Y21971D01*
X46332Y22271D01*
X46217Y22551D01*
X46032Y22791D01*
X45792Y22976D01*
X45512Y23091D01*
X45212Y23131D01*
X44912Y23091D01*
X44632Y22976D01*
X44392Y22791D01*
X44207Y22551D01*
X44092Y22271D01*
X44086Y22226D01*
X42778D01*
X40387Y24617D01*
Y32225D01*
X40514Y32250D01*
X40550Y32162D01*
X40707Y31959D01*
X40910Y31802D01*
X41147Y31704D01*
Y25949D01*
X41038Y25876D01*
X40926Y25709D01*
X40887Y25512D01*
X40926Y25315D01*
X41038Y25148D01*
X41205Y25036D01*
X41402Y24997D01*
X41599Y25036D01*
X41766Y25148D01*
X41878Y25315D01*
X41917Y25512D01*
X41878Y25709D01*
X41766Y25876D01*
X41657Y25949D01*
Y31704D01*
X41894Y31802D01*
X42097Y31959D01*
X42254Y32162D01*
X42352Y32399D01*
X42385Y32654D01*
X42352Y32909D01*
X42254Y33146D01*
X42097Y33349D01*
X41894Y33506D01*
X41657Y33604D01*
X41402Y33637D01*
X41147Y33604D01*
X40910Y33506D01*
X40707Y33349D01*
X40550Y33146D01*
X40514Y33058D01*
X40387Y33083D01*
Y33818D01*
X40911Y34342D01*
X41147Y34244D01*
X41402Y34211D01*
X41657Y34244D01*
X41894Y34342D01*
X42097Y34499D01*
X42254Y34702D01*
X42290Y34790D01*
X42417Y34765D01*
Y33924D01*
X42437Y33826D01*
X42492Y33744D01*
X43090Y33145D01*
X42992Y32909D01*
X42959Y32654D01*
X42992Y32399D01*
X43090Y32162D01*
X43247Y31959D01*
X43450Y31802D01*
X43687Y31704D01*
X43942Y31671D01*
X44197Y31704D01*
X44434Y31802D01*
X44637Y31959D01*
X44794Y32162D01*
X44892Y32399D01*
X44925Y32654D01*
X44892Y32909D01*
X44794Y33146D01*
X44637Y33349D01*
X44434Y33506D01*
X44197Y33604D01*
X43942Y33637D01*
X43687Y33604D01*
X43451Y33506D01*
X42927Y34030D01*
Y34765D01*
X43054Y34790D01*
X43090Y34702D01*
X43247Y34499D01*
X43450Y34342D01*
X43687Y34244D01*
X43942Y34211D01*
X44197Y34244D01*
X44434Y34342D01*
X44637Y34499D01*
X44794Y34702D01*
X44830Y34790D01*
X44957Y34765D01*
Y33924D01*
X44977Y33826D01*
X45032Y33744D01*
X45630Y33145D01*
X45532Y32909D01*
X45499Y32654D01*
X45532Y32399D01*
X45630Y32162D01*
X45787Y31959D01*
X45990Y31802D01*
X46227Y31704D01*
X46482Y31671D01*
X46737Y31704D01*
X46974Y31802D01*
X47177Y31959D01*
X47334Y32162D01*
X47432Y32399D01*
X47465Y32654D01*
X47432Y32909D01*
X47334Y33146D01*
X47177Y33349D01*
X46974Y33506D01*
X46737Y33604D01*
X46482Y33637D01*
X46227Y33604D01*
X45991Y33506D01*
X45467Y34030D01*
Y34765D01*
X45594Y34790D01*
X45630Y34702D01*
X45787Y34499D01*
X45990Y34342D01*
X46227Y34244D01*
X46482Y34211D01*
X46737Y34244D01*
X46974Y34342D01*
X47177Y34499D01*
X47334Y34702D01*
X47379Y34812D01*
X47506Y34787D01*
Y33915D01*
X47526Y33817D01*
X47581Y33735D01*
X48170Y33145D01*
X48072Y32909D01*
X48039Y32654D01*
X48072Y32399D01*
X48170Y32162D01*
X48327Y31959D01*
X48530Y31802D01*
X48767Y31704D01*
X49022Y31671D01*
X49277Y31704D01*
X49514Y31802D01*
X49717Y31959D01*
X49874Y32162D01*
X49972Y32399D01*
X50005Y32654D01*
X49972Y32909D01*
X49874Y33146D01*
X49717Y33349D01*
X49514Y33506D01*
X49277Y33604D01*
X49022Y33637D01*
X48767Y33604D01*
X48531Y33506D01*
X48016Y34021D01*
Y34743D01*
X48143Y34769D01*
X48170Y34702D01*
X48327Y34499D01*
X48530Y34342D01*
X48767Y34244D01*
X49022Y34211D01*
X49277Y34244D01*
X49514Y34342D01*
X49717Y34499D01*
X49874Y34702D01*
X49972Y34939D01*
X50005Y35194D01*
X49972Y35449D01*
X49874Y35686D01*
X49717Y35889D01*
X49514Y36046D01*
X49290Y36138D01*
Y36413D01*
X52665Y39788D01*
X54267D01*
X54365Y39807D01*
X54447Y39863D01*
X55235Y40651D01*
X55290Y40733D01*
X55310Y40831D01*
Y43483D01*
X55600D01*
Y40721D01*
X53732Y38853D01*
X53615Y38915D01*
X53633Y39005D01*
X53594Y39202D01*
X53482Y39369D01*
X53315Y39481D01*
X53118Y39520D01*
X52921Y39481D01*
X52754Y39369D01*
X52643Y39202D01*
X52603Y39005D01*
X52643Y38808D01*
X52654Y38791D01*
X50239Y36375D01*
X50183Y36293D01*
X50164Y36195D01*
Y33797D01*
X50183Y33699D01*
X50239Y33617D01*
X50710Y33145D01*
X50612Y32909D01*
X50579Y32654D01*
X50612Y32399D01*
X50710Y32162D01*
X50867Y31959D01*
X51070Y31802D01*
X51307Y31704D01*
X51562Y31671D01*
X51817Y31704D01*
X52054Y31802D01*
X52257Y31959D01*
X52414Y32162D01*
X52512Y32399D01*
X52545Y32654D01*
X52512Y32909D01*
X52414Y33146D01*
X52257Y33349D01*
X52054Y33506D01*
X51817Y33604D01*
X51562Y33637D01*
X51307Y33604D01*
X51071Y33506D01*
X50674Y33903D01*
Y34541D01*
X50801Y34584D01*
X50867Y34499D01*
X51070Y34342D01*
X51307Y34244D01*
X51562Y34211D01*
X51817Y34244D01*
X52054Y34342D01*
X52257Y34499D01*
X52414Y34702D01*
X52512Y34939D01*
X52545Y35194D01*
X52512Y35449D01*
X52414Y35686D01*
X52257Y35889D01*
X52054Y36046D01*
X51882Y36117D01*
X51862Y36261D01*
X56035Y40435D01*
X56090Y40517D01*
X56110Y40615D01*
Y43483D01*
X56400D01*
Y40505D01*
X53935Y38039D01*
X53880Y37957D01*
X53860Y37859D01*
Y36146D01*
X53847Y36144D01*
X53610Y36046D01*
X53407Y35889D01*
X53250Y35686D01*
X53152Y35449D01*
X53119Y35194D01*
X53152Y34939D01*
X53250Y34702D01*
X53407Y34499D01*
X53610Y34342D01*
X53847Y34244D01*
X54102Y34211D01*
X54357Y34244D01*
X54594Y34342D01*
X54797Y34499D01*
X54954Y34702D01*
X55052Y34939D01*
X55085Y35194D01*
X55052Y35449D01*
X54954Y35686D01*
X54797Y35889D01*
X54594Y36046D01*
X54370Y36138D01*
Y37753D01*
X56835Y40219D01*
X56890Y40301D01*
X56910Y40399D01*
Y43483D01*
X57200D01*
Y40149D01*
X56475Y39423D01*
X56420Y39341D01*
X56400Y39243D01*
Y36146D01*
X56387Y36144D01*
X56150Y36046D01*
X55947Y35889D01*
X55790Y35686D01*
X55692Y35449D01*
X55659Y35194D01*
X55692Y34939D01*
X55790Y34702D01*
X55947Y34499D01*
X56150Y34342D01*
X56387Y34244D01*
X56642Y34211D01*
X56897Y34244D01*
X57134Y34342D01*
X57337Y34499D01*
X57494Y34702D01*
X57592Y34939D01*
X57625Y35194D01*
X57592Y35449D01*
X57494Y35686D01*
X57337Y35889D01*
X57134Y36046D01*
X56910Y36138D01*
Y39137D01*
X57635Y39863D01*
X57690Y39945D01*
X57710Y40043D01*
Y43483D01*
X57880D01*
Y45253D01*
X54663D01*
Y49250D01*
X54663Y49250D01*
X54632Y49406D01*
X54543Y49538D01*
X54543Y49538D01*
X53863Y50219D01*
Y54773D01*
X54155D01*
Y55708D01*
Y56643D01*
X53863D01*
Y57214D01*
X54080D01*
Y58864D01*
X54002D01*
Y60279D01*
X54070Y60381D01*
X54109Y60578D01*
X54070Y60775D01*
X53958Y60942D01*
X53791Y61054D01*
X53594Y61093D01*
X53397Y61054D01*
X53230Y60942D01*
X53118Y60775D01*
X53079Y60578D01*
X53118Y60381D01*
X53186Y60279D01*
Y58864D01*
X52910D01*
Y62301D01*
X53019Y62374D01*
X53131Y62541D01*
X53170Y62738D01*
X53131Y62935D01*
X53019Y63102D01*
X52852Y63214D01*
X52655Y63253D01*
X52458Y63214D01*
X52291Y63102D01*
X52237Y63021D01*
X52110Y63060D01*
Y65476D01*
X52219Y65549D01*
X52331Y65716D01*
X52370Y65913D01*
X52331Y66110D01*
X52219Y66277D01*
X52052Y66389D01*
X51855Y66428D01*
X51658Y66389D01*
X51491Y66277D01*
X51437Y66196D01*
X51310Y66235D01*
Y66443D01*
X55047Y70180D01*
X57816D01*
X57906Y70090D01*
X57905Y69674D01*
X57862D01*
X57764Y69654D01*
X57682Y69599D01*
X55675Y67592D01*
X55620Y67510D01*
X55600Y67412D01*
Y58914D01*
X55155D01*
Y58039D01*
Y57164D01*
X55600D01*
Y56593D01*
X54730D01*
Y56643D01*
X54355D01*
Y55708D01*
Y54773D01*
X54730D01*
Y54823D01*
X56387D01*
Y54285D01*
X56278Y54212D01*
X56166Y54045D01*
X56127Y53848D01*
X56166Y53651D01*
X56278Y53484D01*
X56445Y53372D01*
X56642Y53333D01*
X56839Y53372D01*
X57006Y53484D01*
X57022Y53508D01*
X57149Y53469D01*
Y47275D01*
X57040Y47202D01*
X56928Y47035D01*
X56889Y46838D01*
X56928Y46641D01*
X57040Y46474D01*
X57207Y46362D01*
X57404Y46323D01*
X57601Y46362D01*
X57768Y46474D01*
X57880Y46641D01*
X57919Y46838D01*
X57880Y47035D01*
X57768Y47202D01*
X57659Y47275D01*
Y54823D01*
X57880D01*
Y55870D01*
X57882Y55880D01*
X57880Y55890D01*
Y56593D01*
X56110D01*
Y67306D01*
X57785Y68982D01*
X57902Y68933D01*
X57882Y62801D01*
X59928D01*
Y62076D01*
X60603D01*
X61278D01*
Y62801D01*
X61578D01*
Y61151D01*
X61822D01*
Y55925D01*
X61754Y55823D01*
X61715Y55626D01*
X61754Y55429D01*
X61866Y55262D01*
X62033Y55150D01*
X62230Y55111D01*
X62427Y55150D01*
X62594Y55262D01*
X62706Y55429D01*
X62745Y55626D01*
X62706Y55823D01*
X62638Y55925D01*
Y61151D01*
X62828D01*
Y61695D01*
X66647D01*
Y61278D01*
X67897D01*
Y62801D01*
X68197D01*
Y62203D01*
X68872D01*
X69547D01*
Y62801D01*
X76834D01*
Y52913D01*
X71014Y47093D01*
X64984D01*
X64946Y47220D01*
X65007Y47261D01*
X65119Y47428D01*
X65158Y47625D01*
X65119Y47822D01*
X65007Y47989D01*
X64840Y48101D01*
X64643Y48140D01*
X64450Y48102D01*
X64431Y48115D01*
X64371Y48175D01*
X64358Y48194D01*
X64396Y48387D01*
X64357Y48584D01*
X64245Y48751D01*
X64078Y48863D01*
X64051Y48868D01*
X64063Y48995D01*
X65857D01*
X65930Y48886D01*
X66097Y48774D01*
X66294Y48735D01*
X66491Y48774D01*
X66658Y48886D01*
X66770Y49053D01*
X66809Y49250D01*
X66770Y49447D01*
X66658Y49614D01*
X66491Y49726D01*
X66294Y49765D01*
X66097Y49726D01*
X65930Y49614D01*
X65857Y49505D01*
X60163D01*
X60060Y49563D01*
Y49938D01*
X59125D01*
X58190D01*
Y49563D01*
X58240D01*
Y48813D01*
Y48013D01*
Y47213D01*
Y46413D01*
Y45613D01*
X58777D01*
X58866Y45523D01*
X58796Y36090D01*
X58690Y36046D01*
X58487Y35889D01*
X58330Y35686D01*
X58232Y35449D01*
X58199Y35194D01*
X58232Y34939D01*
X58330Y34702D01*
X58487Y34499D01*
X58690Y34342D01*
X58927Y34244D01*
X59182Y34211D01*
X59437Y34244D01*
X59674Y34342D01*
X59877Y34499D01*
X60034Y34702D01*
X60132Y34939D01*
X60165Y35194D01*
X60132Y35449D01*
X60034Y35686D01*
X59877Y35889D01*
X59674Y36046D01*
X59437Y36144D01*
X59307Y36161D01*
X59377Y45613D01*
X60010D01*
Y46583D01*
X71120D01*
X71218Y46603D01*
X71300Y46658D01*
X77269Y52627D01*
X77324Y52709D01*
X77344Y52807D01*
Y70042D01*
X77324Y70140D01*
X77269Y70222D01*
X77089Y70402D01*
Y80645D01*
X109219D01*
X109219Y255D01*
D02*
G37*
%LPC*%
G36*
X56174Y78397D02*
X54824D01*
Y77955D01*
X54306D01*
X54150Y77924D01*
X54018Y77835D01*
X54018Y77835D01*
X53306Y77123D01*
X53217Y76991D01*
X53186Y76835D01*
X53186Y76835D01*
Y73578D01*
X53118Y73476D01*
X53079Y73279D01*
X53118Y73082D01*
X53230Y72915D01*
X53397Y72803D01*
X53594Y72764D01*
X53791Y72803D01*
X53958Y72915D01*
X54070Y73082D01*
X54109Y73279D01*
X54070Y73476D01*
X54002Y73578D01*
Y76666D01*
X54475Y77139D01*
X54824D01*
Y76697D01*
X56174D01*
Y78397D01*
D02*
G37*
G36*
X34738Y75211D02*
X34738Y75211D01*
X33258D01*
X33102Y75180D01*
X32970Y75091D01*
X32970Y75091D01*
X31462Y73583D01*
X31373Y73451D01*
X31342Y73295D01*
X31342Y73295D01*
Y71543D01*
X29549Y69750D01*
X28291D01*
X28262Y69821D01*
X28110Y70020D01*
X27911Y70172D01*
X27680Y70268D01*
X27432Y70300D01*
X27184Y70268D01*
X26953Y70172D01*
X26754Y70020D01*
X26602Y69821D01*
X26506Y69590D01*
X26474Y69342D01*
X26506Y69094D01*
X26602Y68863D01*
X26754Y68664D01*
X26953Y68512D01*
X27184Y68416D01*
X27432Y68384D01*
X27680Y68416D01*
X27911Y68512D01*
X28110Y68664D01*
X28262Y68863D01*
X28291Y68934D01*
X29718D01*
X29718Y68934D01*
X29874Y68965D01*
X30006Y69054D01*
X32038Y71086D01*
X32038Y71086D01*
X32127Y71218D01*
X32158Y71374D01*
X32158Y71374D01*
Y73126D01*
X32790Y73758D01*
X32917Y73706D01*
Y72663D01*
X34017D01*
Y73863D01*
X33074D01*
X33022Y73990D01*
X33427Y74395D01*
X34569D01*
X34898Y74066D01*
Y73863D01*
X34817D01*
Y72663D01*
X35917D01*
Y72925D01*
X36893D01*
Y72608D01*
X38593D01*
Y72871D01*
X39325D01*
X39427Y72803D01*
X39624Y72764D01*
X39821Y72803D01*
X39988Y72915D01*
X40100Y73082D01*
X40139Y73279D01*
X40100Y73476D01*
X39988Y73643D01*
X39821Y73755D01*
X39624Y73794D01*
X39427Y73755D01*
X39325Y73687D01*
X38593D01*
Y73958D01*
X36893D01*
Y73741D01*
X35917D01*
Y73863D01*
X35714D01*
Y74235D01*
X35683Y74391D01*
X35594Y74523D01*
X35594Y74523D01*
X35026Y75091D01*
X34894Y75180D01*
X34868Y75185D01*
X34738Y75211D01*
D02*
G37*
G36*
X40262Y72294D02*
X38912D01*
Y71699D01*
X38593D01*
Y72058D01*
X36893D01*
Y71588D01*
X34967D01*
Y71863D01*
X33867D01*
Y70663D01*
X34967D01*
Y71078D01*
X36893D01*
Y70708D01*
X37488D01*
Y70336D01*
X36893D01*
Y68986D01*
X38593D01*
Y70336D01*
X37998D01*
Y70708D01*
X38593D01*
Y71189D01*
X38912D01*
Y70594D01*
X39317D01*
Y70237D01*
X38947D01*
Y68587D01*
X40197D01*
Y70237D01*
X39827D01*
Y70594D01*
X40262D01*
Y72294D01*
D02*
G37*
G36*
X41847Y70287D02*
X41272D01*
Y69512D01*
X41847D01*
Y70287D01*
D02*
G37*
G36*
X41072D02*
X40497D01*
Y69512D01*
X41072D01*
Y70287D01*
D02*
G37*
G36*
X41847Y69312D02*
X41272D01*
Y68537D01*
X41847D01*
Y69312D01*
D02*
G37*
G36*
X41072D02*
X40497D01*
Y68537D01*
X41072D01*
Y69312D01*
D02*
G37*
G36*
X33206Y68778D02*
X32406D01*
Y67678D01*
X33206D01*
Y68778D01*
D02*
G37*
G36*
X32206D02*
X31406D01*
Y67678D01*
X32206D01*
Y68778D01*
D02*
G37*
G36*
X36156Y68728D02*
X34456D01*
Y66428D01*
X35051D01*
Y61728D01*
X34456D01*
Y59428D01*
X36156D01*
Y61728D01*
X35561D01*
Y66428D01*
X36156D01*
Y67506D01*
X36893D01*
Y67086D01*
X38593D01*
Y68436D01*
X36893D01*
Y68016D01*
X36156D01*
Y68728D01*
D02*
G37*
G36*
X27682Y67778D02*
Y67052D01*
X28408D01*
X28406Y67063D01*
X28305Y67306D01*
X28145Y67515D01*
X27936Y67675D01*
X27693Y67776D01*
X27682Y67778D01*
D02*
G37*
G36*
X27182D02*
X27171Y67776D01*
X26928Y67675D01*
X26719Y67515D01*
X26559Y67306D01*
X26458Y67063D01*
X26456Y67052D01*
X27182D01*
Y67778D01*
D02*
G37*
G36*
X33206Y67478D02*
X32406D01*
Y66378D01*
X33206D01*
Y67478D01*
D02*
G37*
G36*
X32206D02*
X31406D01*
Y66378D01*
X32206D01*
Y67478D01*
D02*
G37*
G36*
X95000Y73737D02*
X94415Y73691D01*
X93845Y73554D01*
X93304Y73329D01*
X92804Y73023D01*
X92358Y72642D01*
X91977Y72196D01*
X91671Y71696D01*
X91446Y71155D01*
X91309Y70585D01*
X91263Y70000D01*
X91309Y69415D01*
X91446Y68845D01*
X91671Y68304D01*
X91977Y67804D01*
X92358Y67358D01*
X92804Y66977D01*
X93304Y66671D01*
X93845Y66446D01*
X94415Y66309D01*
X95000Y66263D01*
X95585Y66309D01*
X96155Y66446D01*
X96696Y66671D01*
X97196Y66977D01*
X97642Y67358D01*
X98023Y67804D01*
X98329Y68304D01*
X98554Y68845D01*
X98691Y69415D01*
X98737Y70000D01*
X98691Y70585D01*
X98554Y71155D01*
X98329Y71696D01*
X98023Y72196D01*
X97642Y72642D01*
X97196Y73023D01*
X96696Y73329D01*
X96155Y73554D01*
X95585Y73691D01*
X95000Y73737D01*
D02*
G37*
G36*
X15000D02*
X14415Y73691D01*
X13845Y73554D01*
X13304Y73329D01*
X12804Y73023D01*
X12358Y72642D01*
X11977Y72196D01*
X11671Y71696D01*
X11446Y71155D01*
X11309Y70585D01*
X11263Y70000D01*
X11309Y69415D01*
X11446Y68845D01*
X11671Y68304D01*
X11977Y67804D01*
X12358Y67358D01*
X12804Y66977D01*
X13304Y66671D01*
X13845Y66446D01*
X14415Y66309D01*
X15000Y66263D01*
X15585Y66309D01*
X16155Y66446D01*
X16696Y66671D01*
X17196Y66977D01*
X17642Y67358D01*
X18023Y67804D01*
X18329Y68304D01*
X18554Y68845D01*
X18691Y69415D01*
X18737Y70000D01*
X18691Y70585D01*
X18554Y71155D01*
X18329Y71696D01*
X18023Y72196D01*
X17642Y72642D01*
X17196Y73023D01*
X16696Y73329D01*
X16155Y73554D01*
X15585Y73691D01*
X15000Y73737D01*
D02*
G37*
G36*
X28408Y66552D02*
X27682D01*
Y65826D01*
X27693Y65828D01*
X27936Y65928D01*
X28145Y66089D01*
X28305Y66298D01*
X28406Y66541D01*
X28408Y66552D01*
D02*
G37*
G36*
X27182D02*
X26456D01*
X26458Y66541D01*
X26559Y66298D01*
X26719Y66089D01*
X26928Y65928D01*
X27171Y65828D01*
X27182Y65826D01*
Y66552D01*
D02*
G37*
G36*
X40005Y76582D02*
X30353D01*
X30255Y76562D01*
X30173Y76507D01*
X27252Y73586D01*
X27197Y73504D01*
X27177Y73406D01*
Y72832D01*
X26482D01*
Y70932D01*
X28382D01*
Y72832D01*
X27687D01*
Y73300D01*
X30459Y76072D01*
X39899D01*
X41232Y74739D01*
Y72294D01*
X40812D01*
Y70594D01*
X42162D01*
Y71189D01*
X43049D01*
X49295Y64944D01*
X49269Y64815D01*
X49308Y64618D01*
X49420Y64451D01*
X49587Y64339D01*
X49784Y64300D01*
X49981Y64339D01*
X50148Y64451D01*
X50260Y64618D01*
X50299Y64815D01*
X50260Y65012D01*
X50148Y65179D01*
X49981Y65291D01*
X49784Y65330D01*
X49655Y65304D01*
X43335Y71624D01*
X43253Y71679D01*
X43155Y71699D01*
X42162D01*
Y72294D01*
X41742D01*
Y74845D01*
X41722Y74943D01*
X41667Y75025D01*
X40185Y76507D01*
X40103Y76562D01*
X40005Y76582D01*
D02*
G37*
G36*
X27432Y65220D02*
X27184Y65188D01*
X26953Y65092D01*
X26754Y64940D01*
X26602Y64741D01*
X26506Y64510D01*
X26474Y64262D01*
X26506Y64014D01*
X26602Y63783D01*
X26754Y63584D01*
X26953Y63432D01*
X27184Y63336D01*
X27432Y63304D01*
X27680Y63336D01*
X27911Y63432D01*
X28110Y63584D01*
X28262Y63783D01*
X28358Y64014D01*
X28390Y64262D01*
X28358Y64510D01*
X28262Y64741D01*
X28110Y64940D01*
X27911Y65092D01*
X27680Y65188D01*
X27432Y65220D01*
D02*
G37*
G36*
X69547Y62003D02*
X68972D01*
Y61228D01*
X69547D01*
Y62003D01*
D02*
G37*
G36*
X68772D02*
X68197D01*
Y61228D01*
X68772D01*
Y62003D01*
D02*
G37*
G36*
X61278Y61876D02*
X60703D01*
Y61101D01*
X61278D01*
Y61876D01*
D02*
G37*
G36*
X60503D02*
X59928D01*
Y61101D01*
X60503D01*
Y61876D01*
D02*
G37*
G36*
X27432Y62680D02*
X27184Y62648D01*
X26953Y62552D01*
X26754Y62400D01*
X26602Y62201D01*
X26506Y61970D01*
X26474Y61722D01*
X26506Y61474D01*
X26602Y61243D01*
X26754Y61044D01*
X26953Y60892D01*
X27184Y60796D01*
X27432Y60764D01*
X27680Y60796D01*
X27911Y60892D01*
X28110Y61044D01*
X28262Y61243D01*
X28358Y61474D01*
X28390Y61722D01*
X28358Y61970D01*
X28262Y62201D01*
X28110Y62400D01*
X27911Y62552D01*
X27680Y62648D01*
X27432Y62680D01*
D02*
G37*
G36*
X33206Y61778D02*
X32406D01*
Y60678D01*
X33206D01*
Y61778D01*
D02*
G37*
G36*
X32206D02*
X31406D01*
Y60678D01*
X32206D01*
Y61778D01*
D02*
G37*
G36*
X33206Y60478D02*
X32406D01*
Y59378D01*
X33206D01*
Y60478D01*
D02*
G37*
G36*
X32206D02*
X31406D01*
Y59378D01*
X32206D01*
Y60478D01*
D02*
G37*
G36*
X54955Y58914D02*
X54380D01*
Y58139D01*
X54955D01*
Y58914D01*
D02*
G37*
G36*
Y57939D02*
X54380D01*
Y57164D01*
X54955D01*
Y57939D01*
D02*
G37*
G36*
X40143Y56346D02*
X39343D01*
Y55721D01*
X40143D01*
Y56346D01*
D02*
G37*
G36*
X39143D02*
X38343D01*
Y55721D01*
X39143D01*
Y56346D01*
D02*
G37*
G36*
X37959Y55958D02*
X37184D01*
Y55383D01*
X37959D01*
Y55958D01*
D02*
G37*
G36*
X36984D02*
X36209D01*
Y55383D01*
X36984D01*
Y55958D01*
D02*
G37*
G36*
X40143Y55521D02*
X39343D01*
Y54896D01*
X40143D01*
Y55521D01*
D02*
G37*
G36*
X39143D02*
X38343D01*
Y54896D01*
X39143D01*
Y55521D01*
D02*
G37*
G36*
X37959Y55183D02*
X37184D01*
Y54608D01*
X37959D01*
Y55183D01*
D02*
G37*
G36*
X36984D02*
X36209D01*
Y54608D01*
X36984D01*
Y55183D01*
D02*
G37*
G36*
X74422Y55125D02*
X74225Y55086D01*
X74058Y54974D01*
X73985Y54865D01*
X66612D01*
X66514Y54845D01*
X66432Y54790D01*
X63846Y52204D01*
X63729Y52253D01*
X63723Y52261D01*
X63761Y52451D01*
X63722Y52648D01*
X63610Y52815D01*
X63443Y52927D01*
X63246Y52966D01*
X63049Y52927D01*
X62882Y52815D01*
X62809Y52706D01*
X60010D01*
Y53613D01*
Y54463D01*
X58240D01*
Y53613D01*
Y52813D01*
Y52013D01*
Y51213D01*
Y50513D01*
X58190D01*
Y50138D01*
X59125D01*
X60060D01*
Y50513D01*
X60158Y50583D01*
X63980D01*
Y50013D01*
X65230D01*
Y51663D01*
X64191D01*
X64143Y51780D01*
X66718Y54355D01*
X73985D01*
X74058Y54246D01*
X74225Y54134D01*
X74422Y54095D01*
X74619Y54134D01*
X74786Y54246D01*
X74898Y54413D01*
X74937Y54610D01*
X74898Y54807D01*
X74786Y54974D01*
X74619Y55086D01*
X74422Y55125D01*
D02*
G37*
G36*
X66880Y51713D02*
X66305D01*
Y50938D01*
X66880D01*
Y51713D01*
D02*
G37*
G36*
X66105D02*
X65530D01*
Y50938D01*
X66105D01*
Y51713D01*
D02*
G37*
G36*
X35165Y50802D02*
X34390D01*
Y50227D01*
X35165D01*
Y50802D01*
D02*
G37*
G36*
X34190D02*
X33415D01*
Y50227D01*
X34190D01*
Y50802D01*
D02*
G37*
G36*
X66880Y50738D02*
X66305D01*
Y49963D01*
X66880D01*
Y50738D01*
D02*
G37*
G36*
X66105D02*
X65530D01*
Y49963D01*
X66105D01*
Y50738D01*
D02*
G37*
G36*
X37222Y50575D02*
X36422D01*
Y49950D01*
X37222D01*
Y50575D01*
D02*
G37*
G36*
X36222D02*
X35422D01*
Y49950D01*
X36222D01*
Y50575D01*
D02*
G37*
G36*
X35165Y50027D02*
X34390D01*
Y49452D01*
X35165D01*
Y50027D01*
D02*
G37*
G36*
X34190D02*
X33415D01*
Y49452D01*
X34190D01*
Y50027D01*
D02*
G37*
G36*
X37222Y49750D02*
X36422D01*
Y49125D01*
X37222D01*
Y49750D01*
D02*
G37*
G36*
X36222D02*
X35422D01*
Y49125D01*
X36222D01*
Y49750D01*
D02*
G37*
G36*
X45522Y49113D02*
X44747D01*
Y48538D01*
X45522D01*
Y49113D01*
D02*
G37*
G36*
X44547D02*
X43772D01*
Y48538D01*
X44547D01*
Y49113D01*
D02*
G37*
G36*
Y48338D02*
X43772D01*
Y47763D01*
X44547D01*
Y48338D01*
D02*
G37*
G36*
X9834Y44552D02*
X8759D01*
Y43477D01*
X9834D01*
Y44552D01*
D02*
G37*
G36*
X8259D02*
X7184D01*
Y43477D01*
X8259D01*
Y44552D01*
D02*
G37*
G36*
X101168Y44404D02*
Y43350D01*
X102222D01*
X102209Y43446D01*
X102075Y43768D01*
X101863Y44045D01*
X101586Y44257D01*
X101264Y44391D01*
X101168Y44404D01*
D02*
G37*
G36*
X100668D02*
X100572Y44391D01*
X100250Y44257D01*
X99973Y44045D01*
X99761Y43768D01*
X99627Y43446D01*
X99614Y43350D01*
X100668D01*
Y44404D01*
D02*
G37*
G36*
X9834Y42977D02*
X8759D01*
Y41902D01*
X9834D01*
Y42977D01*
D02*
G37*
G36*
X8259D02*
X7184D01*
Y41902D01*
X8259D01*
Y42977D01*
D02*
G37*
G36*
X53158Y42658D02*
X52583D01*
Y41883D01*
X53158D01*
Y42658D01*
D02*
G37*
G36*
X52383D02*
X51808D01*
Y41883D01*
X52383D01*
Y42658D01*
D02*
G37*
G36*
X102222Y42850D02*
X101168D01*
Y41796D01*
X101264Y41809D01*
X101586Y41943D01*
X101863Y42155D01*
X102075Y42432D01*
X102209Y42754D01*
X102222Y42850D01*
D02*
G37*
G36*
X100668D02*
X99614D01*
X99627Y42754D01*
X99761Y42432D01*
X99973Y42155D01*
X100250Y41943D01*
X100572Y41809D01*
X100668Y41796D01*
Y42850D01*
D02*
G37*
G36*
X53158Y41683D02*
X52583D01*
Y40908D01*
X53158D01*
Y41683D01*
D02*
G37*
G36*
X52383D02*
X51808D01*
Y40908D01*
X52383D01*
Y41683D01*
D02*
G37*
G36*
X102193Y39375D02*
X99643D01*
Y36825D01*
X102193D01*
Y39375D01*
D02*
G37*
G36*
X62747Y36219D02*
X61972D01*
Y35444D01*
X62747D01*
Y36219D01*
D02*
G37*
G36*
X61472D02*
X60697D01*
Y35444D01*
X61472D01*
Y36219D01*
D02*
G37*
G36*
X8509Y39513D02*
X8176Y39469D01*
X7866Y39341D01*
X7600Y39136D01*
X7395Y38870D01*
X7267Y38560D01*
X7223Y38227D01*
X7267Y37894D01*
X7395Y37584D01*
X7600Y37318D01*
X7866Y37113D01*
X8176Y36985D01*
X8509Y36941D01*
X8842Y36985D01*
X9152Y37113D01*
X9418Y37318D01*
X9623Y37584D01*
X9751Y37894D01*
X9761Y37972D01*
X35723D01*
X38010Y35685D01*
X37912Y35449D01*
X37879Y35194D01*
X37912Y34939D01*
X38010Y34702D01*
X38167Y34499D01*
X38370Y34342D01*
X38607Y34244D01*
X38862Y34211D01*
X39117Y34244D01*
X39354Y34342D01*
X39557Y34499D01*
X39714Y34702D01*
X39812Y34939D01*
X39845Y35194D01*
X39812Y35449D01*
X39714Y35686D01*
X39557Y35889D01*
X39354Y36046D01*
X39117Y36144D01*
X38862Y36177D01*
X38607Y36144D01*
X38371Y36046D01*
X36009Y38407D01*
X35927Y38462D01*
X35829Y38482D01*
X9761D01*
X9751Y38560D01*
X9623Y38870D01*
X9418Y39136D01*
X9152Y39341D01*
X8842Y39469D01*
X8509Y39513D01*
D02*
G37*
G36*
X62747Y34944D02*
X61972D01*
Y34169D01*
X62747D01*
Y34944D01*
D02*
G37*
G36*
X61472D02*
X60697D01*
Y34169D01*
X61472D01*
Y34944D01*
D02*
G37*
G36*
X18888Y34995D02*
X18388D01*
Y33645D01*
X18888D01*
Y34995D01*
D02*
G37*
G36*
X18188D02*
X17688D01*
Y33645D01*
X18188D01*
Y34995D01*
D02*
G37*
G36*
X18888Y33445D02*
X18388D01*
Y32095D01*
X18888D01*
Y33445D01*
D02*
G37*
G36*
X18188D02*
X17688D01*
Y32095D01*
X18188D01*
Y33445D01*
D02*
G37*
G36*
X59182Y33637D02*
X58927Y33604D01*
X58690Y33506D01*
X58487Y33349D01*
X58330Y33146D01*
X58232Y32909D01*
X58199Y32654D01*
X58232Y32399D01*
X58330Y32162D01*
X58487Y31959D01*
X58690Y31802D01*
X58927Y31704D01*
X59182Y31671D01*
X59437Y31704D01*
X59674Y31802D01*
X59877Y31959D01*
X60034Y32162D01*
X60132Y32399D01*
X60165Y32654D01*
X60132Y32909D01*
X60034Y33146D01*
X59877Y33349D01*
X59674Y33506D01*
X59437Y33604D01*
X59182Y33637D01*
D02*
G37*
G36*
X56642D02*
X56387Y33604D01*
X56150Y33506D01*
X55947Y33349D01*
X55790Y33146D01*
X55692Y32909D01*
X55659Y32654D01*
X55692Y32399D01*
X55790Y32162D01*
X55947Y31959D01*
X56150Y31802D01*
X56387Y31704D01*
X56642Y31671D01*
X56897Y31704D01*
X57134Y31802D01*
X57337Y31959D01*
X57494Y32162D01*
X57592Y32399D01*
X57625Y32654D01*
X57592Y32909D01*
X57494Y33146D01*
X57337Y33349D01*
X57134Y33506D01*
X56897Y33604D01*
X56642Y33637D01*
D02*
G37*
G36*
X54102D02*
X53847Y33604D01*
X53610Y33506D01*
X53407Y33349D01*
X53250Y33146D01*
X53152Y32909D01*
X53119Y32654D01*
X53152Y32399D01*
X53250Y32162D01*
X53407Y31959D01*
X53610Y31802D01*
X53847Y31704D01*
X54102Y31671D01*
X54357Y31704D01*
X54594Y31802D01*
X54797Y31959D01*
X54954Y32162D01*
X55052Y32399D01*
X55085Y32654D01*
X55052Y32909D01*
X54954Y33146D01*
X54797Y33349D01*
X54594Y33506D01*
X54357Y33604D01*
X54102Y33637D01*
D02*
G37*
G36*
X92612Y31634D02*
X91987D01*
Y30834D01*
X92612D01*
Y31634D01*
D02*
G37*
G36*
X91787D02*
X91162D01*
Y30834D01*
X91787D01*
Y31634D01*
D02*
G37*
G36*
X66990Y31453D02*
X66315D01*
Y30453D01*
X66990D01*
Y31453D01*
D02*
G37*
G36*
X66115D02*
X65440D01*
Y30453D01*
X66115D01*
Y31453D01*
D02*
G37*
G36*
X92612Y30634D02*
X91987D01*
Y29834D01*
X92612D01*
Y30634D01*
D02*
G37*
G36*
X91787D02*
X91162D01*
Y29834D01*
X91787D01*
Y30634D01*
D02*
G37*
G36*
X66990Y30253D02*
X66315D01*
Y29253D01*
X66990D01*
Y30253D01*
D02*
G37*
G36*
X66115D02*
X65440D01*
Y29253D01*
X66115D01*
Y30253D01*
D02*
G37*
G36*
X66990Y29040D02*
X66315D01*
Y28040D01*
X66990D01*
Y29040D01*
D02*
G37*
G36*
X66115D02*
X65440D01*
Y28040D01*
X66115D01*
Y29040D01*
D02*
G37*
G36*
X18838Y31245D02*
X17738D01*
Y28445D01*
X17880D01*
Y27432D01*
X12909D01*
X12866Y27559D01*
X12910Y27593D01*
X13052Y27778D01*
X13141Y27993D01*
X13172Y28224D01*
X13141Y28455D01*
X13052Y28670D01*
X12910Y28855D01*
X12725Y28997D01*
X12510Y29086D01*
X12279Y29117D01*
X12048Y29086D01*
X11833Y28997D01*
X11648Y28855D01*
X11506Y28670D01*
X11417Y28455D01*
X11386Y28224D01*
X11417Y27993D01*
X11506Y27778D01*
X11648Y27593D01*
X11833Y27451D01*
X11846Y27446D01*
Y27319D01*
X11825Y27310D01*
X11637Y27166D01*
X11493Y26978D01*
X11402Y26759D01*
X11371Y26524D01*
X11402Y26289D01*
X11493Y26070D01*
X11637Y25882D01*
X11785Y25769D01*
X11794Y25715D01*
X11790Y25646D01*
X11780Y25619D01*
X11612Y25491D01*
X11462Y25296D01*
X11371Y25074D01*
X12279D01*
X13187D01*
X13096Y25296D01*
X12947Y25489D01*
X12953Y25538D01*
X12980Y25616D01*
X20682D01*
X20917Y25647D01*
X21136Y25738D01*
X21324Y25882D01*
X21468Y26070D01*
X21559Y26289D01*
X21590Y26524D01*
X21559Y26759D01*
X21468Y26978D01*
X21324Y27166D01*
X21136Y27310D01*
X20917Y27401D01*
X20682Y27432D01*
X18696D01*
Y28445D01*
X18838D01*
Y31245D01*
D02*
G37*
G36*
X94462Y31584D02*
X93112D01*
Y29884D01*
X93509D01*
Y29654D01*
X93139D01*
Y28004D01*
X94389D01*
Y28369D01*
X96176D01*
X96255Y28178D01*
X96397Y27993D01*
X96582Y27851D01*
X96595Y27846D01*
Y27719D01*
X96574Y27710D01*
X96386Y27566D01*
X96242Y27378D01*
X96159Y27179D01*
X94782D01*
Y27774D01*
X93432D01*
Y26074D01*
X94782D01*
Y26669D01*
X96159D01*
X96242Y26470D01*
X96386Y26282D01*
X96542Y26162D01*
X96551Y26081D01*
X96549Y26056D01*
X96537Y26016D01*
X96361Y25881D01*
X96211Y25686D01*
X96120Y25464D01*
X97028D01*
X97936D01*
X97845Y25686D01*
X97695Y25881D01*
X97675Y25896D01*
X97716Y26016D01*
X99187D01*
X99422Y26047D01*
X99641Y26138D01*
X99829Y26282D01*
X99973Y26470D01*
X100064Y26689D01*
X100095Y26924D01*
X100064Y27159D01*
X99973Y27378D01*
X99829Y27566D01*
X99641Y27710D01*
X99422Y27801D01*
X99187Y27832D01*
X97658D01*
X97615Y27959D01*
X97659Y27993D01*
X97801Y28178D01*
X97890Y28393D01*
X97921Y28624D01*
X97890Y28855D01*
X97801Y29070D01*
X97659Y29255D01*
X97474Y29397D01*
X97259Y29486D01*
X97028Y29517D01*
X96797Y29486D01*
X96582Y29397D01*
X96397Y29255D01*
X96255Y29070D01*
X96176Y28879D01*
X94389D01*
Y29654D01*
X94019D01*
Y29884D01*
X94462D01*
Y31584D01*
D02*
G37*
G36*
X66990Y27840D02*
X66315D01*
Y26840D01*
X66990D01*
Y27840D01*
D02*
G37*
G36*
X66115D02*
X65440D01*
Y26840D01*
X66115D01*
Y27840D01*
D02*
G37*
G36*
X58258Y27430D02*
X57758D01*
Y26080D01*
X58258D01*
Y27430D01*
D02*
G37*
G36*
X52416D02*
X51916D01*
Y26080D01*
X52416D01*
Y27430D01*
D02*
G37*
G36*
X57558D02*
X57058D01*
Y26080D01*
X57558D01*
Y27430D01*
D02*
G37*
G36*
X51716D02*
X51216D01*
Y26080D01*
X51716D01*
Y27430D01*
D02*
G37*
G36*
X92789Y29654D02*
X91539D01*
Y28004D01*
X91882D01*
Y27774D01*
X91532D01*
Y26074D01*
X92882D01*
Y27774D01*
X92446D01*
Y28004D01*
X92789D01*
Y29654D01*
D02*
G37*
G36*
X58258Y25880D02*
X57758D01*
Y24530D01*
X58258D01*
Y25880D01*
D02*
G37*
G36*
X57558D02*
X57058D01*
Y24530D01*
X57558D01*
Y25880D01*
D02*
G37*
G36*
X52416D02*
X51916D01*
Y24530D01*
X52416D01*
Y25880D01*
D02*
G37*
G36*
X51716D02*
X51216D01*
Y24530D01*
X51716D01*
Y25880D01*
D02*
G37*
G36*
X65202Y25351D02*
X63602D01*
X63426Y25316D01*
X63278Y25216D01*
X63178Y25068D01*
X63143Y24892D01*
X63178Y24716D01*
X63278Y24568D01*
X63426Y24468D01*
X63602Y24433D01*
X65202D01*
X65378Y24468D01*
X65526Y24568D01*
X65626Y24716D01*
X65661Y24892D01*
X65626Y25068D01*
X65526Y25216D01*
X65378Y25316D01*
X65202Y25351D01*
D02*
G37*
G36*
X62724Y24589D02*
X61949D01*
Y24014D01*
X62724D01*
Y24589D01*
D02*
G37*
G36*
X61749D02*
X60974D01*
Y24014D01*
X61749D01*
Y24589D01*
D02*
G37*
G36*
X65202Y24132D02*
X64502D01*
Y23722D01*
X65692D01*
X65673Y23817D01*
X65562Y23982D01*
X65397Y24093D01*
X65202Y24132D01*
D02*
G37*
G36*
X64302D02*
X63602D01*
X63407Y24093D01*
X63242Y23982D01*
X63131Y23817D01*
X63112Y23722D01*
X64302D01*
Y24132D01*
D02*
G37*
G36*
X61722Y33637D02*
X61467Y33604D01*
X61230Y33506D01*
X61027Y33349D01*
X60870Y33146D01*
X60772Y32909D01*
X60739Y32654D01*
X60772Y32399D01*
X60870Y32162D01*
X61027Y31959D01*
X61230Y31802D01*
X61314Y31768D01*
Y30810D01*
X59995Y29491D01*
X50927D01*
X50927Y29491D01*
X50771Y29460D01*
X50639Y29371D01*
X49578Y28310D01*
X49489Y28178D01*
X49458Y28022D01*
X49458Y28022D01*
Y17907D01*
X49489Y17751D01*
X49560Y17645D01*
Y17233D01*
X49491D01*
X49413Y17217D01*
X49347Y17173D01*
X49303Y17107D01*
X49287Y17029D01*
Y16729D01*
X49303Y16651D01*
X49303Y16651D01*
X49311Y16559D01*
X49256Y16477D01*
X49236Y16379D01*
Y16329D01*
X49866D01*
X50496D01*
Y16379D01*
X50483Y16446D01*
X50535Y16541D01*
X50565Y16573D01*
X51345D01*
Y16254D01*
X52995D01*
Y17504D01*
X51345D01*
Y17185D01*
X50368D01*
X50319Y17217D01*
X50241Y17233D01*
X50172D01*
Y17645D01*
X50243Y17751D01*
X50274Y17907D01*
Y27853D01*
X51096Y28675D01*
X60164D01*
X60164Y28675D01*
X60320Y28706D01*
X60452Y28795D01*
X62010Y30353D01*
X62010Y30353D01*
X62099Y30485D01*
X62130Y30641D01*
Y31768D01*
X62214Y31802D01*
X62417Y31959D01*
X62574Y32162D01*
X62608Y32246D01*
X68015D01*
X68731Y31530D01*
X68679Y31403D01*
X68490D01*
Y29303D01*
X68807D01*
Y28990D01*
X68490D01*
Y26890D01*
X68807D01*
Y25351D01*
X68402D01*
X68226Y25316D01*
X68078Y25216D01*
X67978Y25068D01*
X67943Y24892D01*
X67978Y24716D01*
X68078Y24568D01*
X68226Y24468D01*
X68402Y24433D01*
X70002D01*
X70178Y24468D01*
X70202Y24484D01*
X75544D01*
Y23282D01*
X78634D01*
Y26502D01*
X75544D01*
Y25300D01*
X70202D01*
X70178Y25316D01*
X70002Y25351D01*
X69623D01*
Y26890D01*
X69940D01*
Y28990D01*
X69623D01*
Y29303D01*
X69940D01*
Y31403D01*
X69623D01*
Y31623D01*
X69592Y31779D01*
X69503Y31911D01*
X69503Y31911D01*
X68472Y32942D01*
X68340Y33031D01*
X68184Y33062D01*
X68184Y33062D01*
X62608D01*
X62574Y33146D01*
X62417Y33349D01*
X62214Y33506D01*
X61977Y33604D01*
X61722Y33637D01*
D02*
G37*
G36*
X62724Y23814D02*
X61949D01*
Y23239D01*
X62724D01*
Y23814D01*
D02*
G37*
G36*
X61749D02*
X60974D01*
Y23239D01*
X61749D01*
Y23814D01*
D02*
G37*
G36*
X70002Y24081D02*
X68402D01*
X68226Y24046D01*
X68078Y23946D01*
X67978Y23798D01*
X67943Y23622D01*
X67978Y23446D01*
X68078Y23298D01*
X68226Y23198D01*
X68402Y23163D01*
X70002D01*
X70178Y23198D01*
X70326Y23298D01*
X70426Y23446D01*
X70461Y23622D01*
X70426Y23798D01*
X70326Y23946D01*
X70178Y24046D01*
X70002Y24081D01*
D02*
G37*
G36*
X65692Y23522D02*
X64502D01*
Y23112D01*
X65202D01*
X65397Y23151D01*
X65562Y23262D01*
X65673Y23427D01*
X65692Y23522D01*
D02*
G37*
G36*
X64302D02*
X63112D01*
X63131Y23427D01*
X63242Y23262D01*
X63407Y23151D01*
X63602Y23112D01*
X64302D01*
Y23522D01*
D02*
G37*
G36*
X58208Y23680D02*
X57108D01*
Y22688D01*
X55036D01*
X54934Y22756D01*
X54737Y22795D01*
X54540Y22756D01*
X54438Y22688D01*
X52366D01*
Y23680D01*
X51266D01*
Y20880D01*
X52366D01*
Y21872D01*
X54438D01*
X54540Y21804D01*
X54737Y21765D01*
X54934Y21804D01*
X55036Y21872D01*
X57108D01*
Y20880D01*
X58208D01*
Y21872D01*
X61024D01*
Y21689D01*
X62674D01*
Y21906D01*
X63537D01*
X63602Y21893D01*
X65202D01*
X65378Y21928D01*
X65526Y22028D01*
X65626Y22176D01*
X65661Y22352D01*
X65626Y22528D01*
X65526Y22676D01*
X65378Y22776D01*
X65202Y22811D01*
X63602D01*
X63426Y22776D01*
X63346Y22722D01*
X62674D01*
Y22939D01*
X61024D01*
Y22688D01*
X58208D01*
Y23680D01*
D02*
G37*
G36*
X13187Y24574D02*
X12279D01*
X11371D01*
X11462Y24352D01*
X11612Y24157D01*
X11632Y24142D01*
X11591Y24022D01*
X10287D01*
X10052Y23991D01*
X9833Y23900D01*
X9645Y23756D01*
X9501Y23568D01*
X9410Y23349D01*
X9379Y23114D01*
X9410Y22879D01*
X9501Y22660D01*
X9645Y22472D01*
X9833Y22328D01*
X10052Y22237D01*
X10287Y22206D01*
X11649D01*
X11692Y22079D01*
X11648Y22045D01*
X11506Y21860D01*
X11417Y21645D01*
X11386Y21414D01*
X11417Y21183D01*
X11506Y20968D01*
X11648Y20783D01*
X11833Y20641D01*
X12048Y20552D01*
X12279Y20521D01*
X12510Y20552D01*
X12725Y20641D01*
X12910Y20783D01*
X13042Y20954D01*
X14283D01*
Y20384D01*
X14630D01*
Y20027D01*
X14210D01*
Y18327D01*
X15560D01*
Y20027D01*
X15140D01*
Y20384D01*
X15533D01*
Y22034D01*
X14283D01*
Y21464D01*
X13165D01*
X13141Y21645D01*
X13052Y21860D01*
X12910Y22045D01*
X12725Y22187D01*
X12712Y22192D01*
Y22319D01*
X12733Y22328D01*
X12921Y22472D01*
X13065Y22660D01*
X13148Y22859D01*
X13956D01*
Y22264D01*
X15306D01*
Y23964D01*
X13956D01*
Y23369D01*
X13148D01*
X13065Y23568D01*
X12921Y23756D01*
X12765Y23876D01*
X12756Y23957D01*
X12758Y23982D01*
X12770Y24022D01*
X12946Y24157D01*
X13096Y24352D01*
X13187Y24574D01*
D02*
G37*
G36*
X70002Y22811D02*
X68402D01*
X68226Y22776D01*
X68078Y22676D01*
X67978Y22528D01*
X67943Y22352D01*
X67978Y22176D01*
X68078Y22028D01*
X68226Y21928D01*
X68402Y21893D01*
X70002D01*
X70178Y21928D01*
X70326Y22028D01*
X70426Y22176D01*
X70461Y22352D01*
X70426Y22528D01*
X70326Y22676D01*
X70178Y22776D01*
X70002Y22811D01*
D02*
G37*
G36*
X97936Y24964D02*
X97028D01*
X96120D01*
X96211Y24742D01*
X96360Y24549D01*
X96354Y24500D01*
X96327Y24422D01*
X93237D01*
X93002Y24391D01*
X92783Y24300D01*
X92595Y24156D01*
X92451Y23968D01*
X92360Y23749D01*
X92329Y23514D01*
X92360Y23279D01*
X92451Y23060D01*
X92595Y22872D01*
X92783Y22728D01*
X92880Y22688D01*
Y21317D01*
X92907Y21180D01*
X92985Y21065D01*
X93314Y20735D01*
Y17822D01*
X92271D01*
Y16722D01*
X95071D01*
Y17822D01*
X94028D01*
Y20883D01*
X94001Y21020D01*
X93923Y21135D01*
X93594Y21465D01*
Y22606D01*
X96398D01*
X96441Y22479D01*
X96397Y22445D01*
X96255Y22260D01*
X96166Y22045D01*
X96135Y21814D01*
X96166Y21583D01*
X96255Y21368D01*
X96397Y21183D01*
X96582Y21041D01*
X96797Y20952D01*
X97028Y20921D01*
X97259Y20952D01*
X97474Y21041D01*
X97659Y21183D01*
X97801Y21368D01*
X97890Y21583D01*
X97921Y21814D01*
X97890Y22045D01*
X97801Y22260D01*
X97659Y22445D01*
X97474Y22587D01*
X97461Y22592D01*
Y22719D01*
X97482Y22728D01*
X97670Y22872D01*
X97814Y23060D01*
X97905Y23279D01*
X97936Y23514D01*
X97905Y23749D01*
X97814Y23968D01*
X97670Y24156D01*
X97522Y24269D01*
X97513Y24323D01*
X97517Y24392D01*
X97527Y24419D01*
X97695Y24547D01*
X97845Y24742D01*
X97936Y24964D01*
D02*
G37*
G36*
X17206Y23964D02*
X15856D01*
Y22264D01*
X16276D01*
Y22034D01*
X15883D01*
Y20384D01*
X17133D01*
Y22034D01*
X16786D01*
Y22264D01*
X17206D01*
Y23964D01*
D02*
G37*
G36*
X17510Y20077D02*
X16885D01*
Y19277D01*
X17510D01*
Y20077D01*
D02*
G37*
G36*
X16685D02*
X16060D01*
Y19277D01*
X16685D01*
Y20077D01*
D02*
G37*
G36*
X88646Y32773D02*
X88449Y32734D01*
X88282Y32622D01*
X88170Y32455D01*
X88131Y32258D01*
X88170Y32061D01*
X88282Y31894D01*
X88391Y31821D01*
Y19868D01*
X88282Y19795D01*
X88170Y19628D01*
X88131Y19431D01*
X88170Y19234D01*
X88282Y19067D01*
X88449Y18955D01*
X88646Y18916D01*
X88843Y18955D01*
X89010Y19067D01*
X89122Y19234D01*
X89161Y19431D01*
X89122Y19628D01*
X89010Y19795D01*
X88901Y19868D01*
Y31821D01*
X89010Y31894D01*
X89122Y32061D01*
X89161Y32258D01*
X89122Y32455D01*
X89010Y32622D01*
X88843Y32734D01*
X88646Y32773D01*
D02*
G37*
G36*
X27813Y25026D02*
X27616Y24987D01*
X27449Y24875D01*
X27337Y24708D01*
X27298Y24511D01*
X27337Y24314D01*
X27449Y24147D01*
X27558Y24074D01*
Y19868D01*
X27449Y19795D01*
X27337Y19628D01*
X27298Y19431D01*
X27337Y19234D01*
X27449Y19067D01*
X27616Y18955D01*
X27813Y18916D01*
X28010Y18955D01*
X28177Y19067D01*
X28289Y19234D01*
X28328Y19431D01*
X28289Y19628D01*
X28177Y19795D01*
X28068Y19868D01*
Y24074D01*
X28177Y24147D01*
X28289Y24314D01*
X28328Y24511D01*
X28289Y24708D01*
X28177Y24875D01*
X28010Y24987D01*
X27813Y25026D01*
D02*
G37*
G36*
X17510Y19077D02*
X16885D01*
Y18277D01*
X17510D01*
Y19077D01*
D02*
G37*
G36*
X16685D02*
X16060D01*
Y18277D01*
X16685D01*
Y19077D01*
D02*
G37*
G36*
X70002Y21541D02*
X68402D01*
X68226Y21506D01*
X68078Y21406D01*
X67978Y21258D01*
X67943Y21082D01*
X67978Y20906D01*
X68078Y20758D01*
X68226Y20658D01*
X68402Y20623D01*
X68947D01*
Y19621D01*
X68594D01*
Y17971D01*
X69844D01*
Y19621D01*
X69457D01*
Y20623D01*
X70002D01*
X70178Y20658D01*
X70326Y20758D01*
X70426Y20906D01*
X70461Y21082D01*
X70426Y21258D01*
X70326Y21406D01*
X70178Y21506D01*
X70002Y21541D01*
D02*
G37*
G36*
X61722Y45854D02*
X61525Y45815D01*
X61358Y45703D01*
X61246Y45536D01*
X61207Y45339D01*
X61246Y45142D01*
X61358Y44975D01*
X61525Y44863D01*
X61722Y44824D01*
X61745Y44829D01*
X86566Y20007D01*
Y19172D01*
X85971D01*
Y17822D01*
X87671D01*
Y19172D01*
X87076D01*
Y20113D01*
X87056Y20211D01*
X87001Y20293D01*
X62180Y45115D01*
X62198Y45142D01*
X62237Y45339D01*
X62198Y45536D01*
X62086Y45703D01*
X61919Y45815D01*
X61722Y45854D01*
D02*
G37*
G36*
X91421Y17872D02*
X90071D01*
Y17372D01*
X91421D01*
Y17872D01*
D02*
G37*
G36*
X89871D02*
X88521D01*
Y17372D01*
X89871D01*
Y17872D01*
D02*
G37*
G36*
X91421Y17172D02*
X90071D01*
Y16672D01*
X91421D01*
Y17172D01*
D02*
G37*
G36*
X89871D02*
X88521D01*
Y16672D01*
X89871D01*
Y17172D01*
D02*
G37*
G36*
X50496Y16129D02*
X49866D01*
X49236D01*
Y16079D01*
X49256Y15981D01*
X49307Y15904D01*
X49256Y15827D01*
X49236Y15729D01*
Y15679D01*
X49866D01*
X50496D01*
Y15729D01*
X50476Y15827D01*
X50425Y15904D01*
X50476Y15981D01*
X50496Y16079D01*
Y16129D01*
D02*
G37*
G36*
X53045Y15954D02*
X52270D01*
Y15379D01*
X53045D01*
Y15954D01*
D02*
G37*
G36*
X52070D02*
X51295D01*
Y15379D01*
X52070D01*
Y15954D01*
D02*
G37*
G36*
X50496Y15479D02*
X49966D01*
Y15174D01*
X50241D01*
X50339Y15194D01*
X50421Y15249D01*
X50476Y15331D01*
X50496Y15429D01*
Y15479D01*
D02*
G37*
G36*
X49766D02*
X49236D01*
Y15429D01*
X49256Y15331D01*
X49311Y15249D01*
X49393Y15194D01*
X49491Y15174D01*
X49766D01*
Y15479D01*
D02*
G37*
G36*
X65802Y15846D02*
X64502D01*
Y14846D01*
X65802D01*
Y15846D01*
D02*
G37*
G36*
X64302D02*
X63002D01*
Y14846D01*
X64302D01*
Y15846D01*
D02*
G37*
G36*
X53045Y15179D02*
X52270D01*
Y14604D01*
X53045D01*
Y15179D01*
D02*
G37*
G36*
X52070D02*
X51295D01*
Y14604D01*
X52070D01*
Y15179D01*
D02*
G37*
G36*
X65202Y21541D02*
X63602D01*
X63426Y21506D01*
X63278Y21406D01*
X63178Y21258D01*
X63143Y21082D01*
X63178Y20906D01*
X63278Y20758D01*
X63426Y20658D01*
X63602Y20623D01*
X63994D01*
Y19846D01*
X63052D01*
Y17746D01*
X65752D01*
Y18388D01*
X66994D01*
Y17971D01*
X67211D01*
Y17344D01*
X67211Y17344D01*
X67242Y17188D01*
X67331Y17056D01*
X68613Y15774D01*
X68613Y15774D01*
X68745Y15685D01*
X68901Y15654D01*
X68901Y15654D01*
X75544D01*
Y14452D01*
X78634D01*
Y17672D01*
X75544D01*
Y16470D01*
X69070D01*
X68027Y17513D01*
Y17971D01*
X68244D01*
Y19621D01*
X66994D01*
Y19204D01*
X65752D01*
Y19846D01*
X64810D01*
Y20623D01*
X65202D01*
X65378Y20658D01*
X65526Y20758D01*
X65626Y20906D01*
X65661Y21082D01*
X65626Y21258D01*
X65526Y21406D01*
X65378Y21506D01*
X65202Y21541D01*
D02*
G37*
G36*
X65802Y14646D02*
X64502D01*
Y13646D01*
X65802D01*
Y14646D01*
D02*
G37*
G36*
X64302D02*
X63002D01*
Y13646D01*
X64302D01*
Y14646D01*
D02*
G37*
G36*
X92071Y11498D02*
Y10671D01*
X92898D01*
X92893Y10708D01*
X92782Y10976D01*
X92606Y11206D01*
X92376Y11382D01*
X92108Y11493D01*
X92071Y11498D01*
D02*
G37*
G36*
X91571D02*
X91534Y11493D01*
X91266Y11382D01*
X91036Y11206D01*
X90860Y10976D01*
X90749Y10708D01*
X90744Y10671D01*
X91571D01*
Y11498D01*
D02*
G37*
G36*
X92898Y10171D02*
X92071D01*
Y9344D01*
X92108Y9349D01*
X92376Y9460D01*
X92606Y9636D01*
X92782Y9866D01*
X92893Y10134D01*
X92898Y10171D01*
D02*
G37*
G36*
X91571D02*
X90744D01*
X90749Y10134D01*
X90860Y9866D01*
X91036Y9636D01*
X91266Y9460D01*
X91534Y9349D01*
X91571Y9344D01*
Y10171D01*
D02*
G37*
G36*
X54921Y10066D02*
Y9012D01*
X55975D01*
X55962Y9108D01*
X55828Y9430D01*
X55616Y9707D01*
X55339Y9919D01*
X55017Y10053D01*
X54921Y10066D01*
D02*
G37*
G36*
X54421D02*
X54325Y10053D01*
X54003Y9919D01*
X53726Y9707D01*
X53514Y9430D01*
X53380Y9108D01*
X53367Y9012D01*
X54421D01*
Y10066D01*
D02*
G37*
G36*
X106168Y9686D02*
Y8632D01*
X107222D01*
X107209Y8728D01*
X107075Y9050D01*
X106863Y9327D01*
X106586Y9539D01*
X106264Y9673D01*
X106168Y9686D01*
D02*
G37*
G36*
X105668D02*
X105572Y9673D01*
X105250Y9539D01*
X104973Y9327D01*
X104761Y9050D01*
X104627Y8728D01*
X104614Y8632D01*
X105668D01*
Y9686D01*
D02*
G37*
G36*
X4921Y9595D02*
X3846D01*
Y8520D01*
X4921D01*
Y9595D01*
D02*
G37*
G36*
X3346D02*
X2271D01*
Y8520D01*
X3346D01*
Y9595D01*
D02*
G37*
G36*
X55975Y8512D02*
X54921D01*
Y7458D01*
X55017Y7471D01*
X55339Y7605D01*
X55616Y7817D01*
X55828Y8094D01*
X55962Y8416D01*
X55975Y8512D01*
D02*
G37*
G36*
X54421D02*
X53367D01*
X53380Y8416D01*
X53514Y8094D01*
X53726Y7817D01*
X54003Y7605D01*
X54325Y7471D01*
X54421Y7458D01*
Y8512D01*
D02*
G37*
G36*
X102193Y9657D02*
X99643D01*
Y7107D01*
X102193D01*
Y9657D01*
D02*
G37*
G36*
X107222Y8132D02*
X106168D01*
Y7078D01*
X106264Y7091D01*
X106586Y7225D01*
X106863Y7437D01*
X107075Y7714D01*
X107209Y8036D01*
X107222Y8132D01*
D02*
G37*
G36*
X105668D02*
X104614D01*
X104627Y8036D01*
X104761Y7714D01*
X104973Y7437D01*
X105250Y7225D01*
X105572Y7091D01*
X105668Y7078D01*
Y8132D01*
D02*
G37*
G36*
X8596Y9556D02*
X8263Y9512D01*
X7953Y9384D01*
X7687Y9179D01*
X7482Y8913D01*
X7354Y8603D01*
X7310Y8270D01*
X7354Y7937D01*
X7482Y7627D01*
X7687Y7361D01*
X7953Y7156D01*
X8263Y7028D01*
X8596Y6984D01*
X8929Y7028D01*
X9239Y7156D01*
X9505Y7361D01*
X9710Y7627D01*
X9838Y7937D01*
X9882Y8270D01*
X9838Y8603D01*
X9710Y8913D01*
X9505Y9179D01*
X9239Y9384D01*
X8929Y9512D01*
X8596Y9556D01*
D02*
G37*
G36*
X4921Y8020D02*
X3846D01*
Y6945D01*
X4921D01*
Y8020D01*
D02*
G37*
G36*
X3346D02*
X2271D01*
Y6945D01*
X3346D01*
Y8020D01*
D02*
G37*
G36*
X92071Y6498D02*
Y5671D01*
X92898D01*
X92893Y5708D01*
X92782Y5976D01*
X92606Y6206D01*
X92376Y6382D01*
X92108Y6493D01*
X92071Y6498D01*
D02*
G37*
G36*
X91571D02*
X91534Y6493D01*
X91266Y6382D01*
X91036Y6206D01*
X90860Y5976D01*
X90749Y5708D01*
X90744Y5671D01*
X91571D01*
Y6498D01*
D02*
G37*
G36*
X87671Y17272D02*
X85971D01*
Y15922D01*
X86566D01*
Y11471D01*
X85771D01*
Y9371D01*
X86566D01*
Y6471D01*
X85771D01*
Y4371D01*
X87871D01*
Y6471D01*
X87076D01*
Y9371D01*
X87871D01*
Y11471D01*
X87076D01*
Y15922D01*
X87671D01*
Y17272D01*
D02*
G37*
G36*
X92898Y5171D02*
X92071D01*
Y4344D01*
X92108Y4349D01*
X92376Y4460D01*
X92606Y4636D01*
X92782Y4866D01*
X92893Y5134D01*
X92898Y5171D01*
D02*
G37*
G36*
X91571D02*
X90744D01*
X90749Y5134D01*
X90860Y4866D01*
X91036Y4636D01*
X91266Y4460D01*
X91534Y4349D01*
X91571Y4344D01*
Y5171D01*
D02*
G37*
G36*
X70000Y10737D02*
X69415Y10691D01*
X68845Y10554D01*
X68304Y10329D01*
X67804Y10023D01*
X67358Y9642D01*
X66977Y9196D01*
X66671Y8696D01*
X66446Y8155D01*
X66309Y7585D01*
X66263Y7000D01*
X66309Y6415D01*
X66446Y5845D01*
X66671Y5304D01*
X66977Y4804D01*
X67358Y4358D01*
X67804Y3977D01*
X68304Y3671D01*
X68845Y3446D01*
X69415Y3309D01*
X70000Y3263D01*
X70585Y3309D01*
X71155Y3446D01*
X71696Y3671D01*
X72196Y3977D01*
X72642Y4358D01*
X73023Y4804D01*
X73329Y5304D01*
X73554Y5845D01*
X73691Y6415D01*
X73737Y7000D01*
X73691Y7585D01*
X73554Y8155D01*
X73329Y8696D01*
X73023Y9196D01*
X72642Y9642D01*
X72196Y10023D01*
X71696Y10329D01*
X71155Y10554D01*
X70585Y10691D01*
X70000Y10737D01*
D02*
G37*
G36*
X25000D02*
X24415Y10691D01*
X23845Y10554D01*
X23304Y10329D01*
X22804Y10023D01*
X22358Y9642D01*
X21977Y9196D01*
X21671Y8696D01*
X21446Y8155D01*
X21309Y7585D01*
X21263Y7000D01*
X21309Y6415D01*
X21446Y5845D01*
X21671Y5304D01*
X21977Y4804D01*
X22358Y4358D01*
X22804Y3977D01*
X23304Y3671D01*
X23845Y3446D01*
X24415Y3309D01*
X25000Y3263D01*
X25585Y3309D01*
X26155Y3446D01*
X26696Y3671D01*
X27196Y3977D01*
X27642Y4358D01*
X28023Y4804D01*
X28329Y5304D01*
X28554Y5845D01*
X28691Y6415D01*
X28737Y7000D01*
X28691Y7585D01*
X28554Y8155D01*
X28329Y8696D01*
X28023Y9196D01*
X27642Y9642D01*
X27196Y10023D01*
X26696Y10329D01*
X26155Y10554D01*
X25585Y10691D01*
X25000Y10737D01*
D02*
G37*
%LPD*%
D10*
X66205Y50838D02*
D03*
X64605D02*
D03*
X67619Y18796D02*
D03*
X69219D02*
D03*
X39572Y69412D02*
D03*
X41172D02*
D03*
X54083Y41783D02*
D03*
X52483D02*
D03*
X67272Y62103D02*
D03*
X68872D02*
D03*
X62203Y61976D02*
D03*
X60603D02*
D03*
X16508Y21209D02*
D03*
X14908D02*
D03*
X93764Y28829D02*
D03*
X92164D02*
D03*
X55055Y58039D02*
D03*
X53455D02*
D03*
D11*
X69215Y27940D02*
D03*
X66215D02*
D03*
X69215Y30353D02*
D03*
X66215D02*
D03*
D12*
X18288Y29845D02*
D03*
Y33545D02*
D03*
X51816Y22280D02*
D03*
Y25980D02*
D03*
X57658Y22280D02*
D03*
Y25980D02*
D03*
D13*
X35306Y67578D02*
D03*
Y60578D02*
D03*
X32306Y67578D02*
D03*
Y60578D02*
D03*
D14*
X34417Y71263D02*
D03*
X33467Y73263D02*
D03*
X35367D02*
D03*
D15*
X37743Y71383D02*
D03*
Y73283D02*
D03*
X37743Y67761D02*
D03*
Y69661D02*
D03*
X41402Y53721D02*
D03*
Y55621D02*
D03*
X39243D02*
D03*
Y53721D02*
D03*
X36322Y49850D02*
D03*
Y51750D02*
D03*
X86821Y16597D02*
D03*
Y18497D02*
D03*
D16*
X41487Y71444D02*
D03*
X39587D02*
D03*
X57399Y77547D02*
D03*
X55499D02*
D03*
X16531Y23114D02*
D03*
X14631D02*
D03*
X91887Y30734D02*
D03*
X93787D02*
D03*
X92207Y26924D02*
D03*
X94107D02*
D03*
X16785Y19177D02*
D03*
X14885D02*
D03*
D17*
X44647Y50038D02*
D03*
Y48438D02*
D03*
X61849Y23914D02*
D03*
Y22314D02*
D03*
X37084Y53683D02*
D03*
Y55283D02*
D03*
X34290Y51727D02*
D03*
Y50127D02*
D03*
X52170Y16879D02*
D03*
Y15279D02*
D03*
D18*
X59125Y50038D02*
D03*
Y49238D02*
D03*
Y48438D02*
D03*
Y47638D02*
D03*
Y46838D02*
D03*
Y46038D02*
D03*
Y50838D02*
D03*
Y51638D02*
D03*
Y52438D02*
D03*
Y53238D02*
D03*
Y54038D02*
D03*
X47785Y50038D02*
D03*
Y50838D02*
D03*
Y51638D02*
D03*
Y52438D02*
D03*
Y53238D02*
D03*
Y54038D02*
D03*
Y49238D02*
D03*
Y48438D02*
D03*
Y47638D02*
D03*
Y46838D02*
D03*
Y46038D02*
D03*
D19*
X53455Y55708D02*
D03*
X54255D02*
D03*
X55055D02*
D03*
X55855D02*
D03*
X56655D02*
D03*
X57455D02*
D03*
X52655D02*
D03*
X51855D02*
D03*
X51055D02*
D03*
X50255D02*
D03*
X49455D02*
D03*
X53455Y44368D02*
D03*
X52655D02*
D03*
X51855D02*
D03*
X51055D02*
D03*
X50255D02*
D03*
X49455D02*
D03*
X54255D02*
D03*
X55055D02*
D03*
X55855D02*
D03*
X56655D02*
D03*
X57455D02*
D03*
D20*
X75033Y79585D02*
D03*
Y78569D02*
D03*
Y77553D02*
D03*
Y76537D02*
D03*
Y74505D02*
D03*
Y70441D02*
D03*
Y69425D02*
D03*
Y68409D02*
D03*
Y67393D02*
D03*
X60303Y77547D02*
D03*
Y76531D02*
D03*
Y75515D02*
D03*
Y74499D02*
D03*
Y73483D02*
D03*
Y72467D02*
D03*
Y71451D02*
D03*
Y70435D02*
D03*
Y69419D02*
D03*
Y68403D02*
D03*
D21*
X72363Y64723D02*
D03*
X71347D02*
D03*
X70331D02*
D03*
X69315D02*
D03*
X68299D02*
D03*
X67283D02*
D03*
X66267D02*
D03*
X65251D02*
D03*
X62203D02*
D03*
D22*
X67183Y70993D02*
D03*
D23*
X93671Y17272D02*
D03*
X89971D02*
D03*
D24*
X45185Y15086D02*
D03*
Y17986D02*
D03*
D25*
X49866Y15579D02*
D03*
Y16229D02*
D03*
Y16879D02*
D03*
X47616D02*
D03*
Y16229D02*
D03*
Y15579D02*
D03*
D26*
X64402Y14746D02*
D03*
Y18796D02*
D03*
D27*
X77089Y16062D02*
D03*
Y24892D02*
D03*
D28*
X69202Y21082D02*
D03*
Y22352D02*
D03*
Y23622D02*
D03*
Y24892D02*
D03*
X64402Y21082D02*
D03*
Y22352D02*
D03*
Y23622D02*
D03*
Y24892D02*
D03*
D29*
X45151Y15052D02*
Y15120D01*
Y8762D02*
Y15052D01*
X45212Y18013D02*
Y21971D01*
X45185Y17986D02*
X45212Y18013D01*
D30*
X44586Y15685D02*
X45151Y15120D01*
X43871Y15685D02*
X44586D01*
X50016Y50927D02*
X52578D01*
X49276Y51667D02*
X50016Y50927D01*
X49276Y51667D02*
Y53704D01*
X48942Y54038D02*
X49276Y53704D01*
X44609Y46673D02*
X46374Y48438D01*
X44609Y38564D02*
Y46673D01*
X42672Y36627D02*
X44609Y38564D01*
X42672Y33924D02*
Y36627D01*
X47785Y54038D02*
X48942D01*
X46328Y16229D02*
X47616D01*
X45185Y15086D02*
X46328Y16229D01*
X42799Y16757D02*
X43871Y15685D01*
X42799Y16757D02*
Y20701D01*
X39385Y24115D02*
X42799Y20701D01*
X39385Y24115D02*
Y25512D01*
X50255Y59399D02*
X50419Y59563D01*
X50255Y55708D02*
Y59399D01*
X51055Y60037D02*
Y66549D01*
Y60037D02*
X51278Y59814D01*
Y59312D02*
Y59814D01*
X51055Y59089D02*
X51278Y59312D01*
X51055Y55708D02*
Y59089D01*
X53118Y38894D02*
Y39005D01*
X50419Y36195D02*
X53118Y38894D01*
X51562Y36322D02*
X55855Y40615D01*
Y44368D01*
X59125Y50838D02*
X64605D01*
X59137Y49250D02*
X66294D01*
X59125Y49238D02*
X59137Y49250D01*
X66267Y62943D02*
Y64723D01*
X88646Y19431D02*
Y32258D01*
X66612Y54610D02*
X74422D01*
X63640Y51638D02*
X66612Y54610D01*
X59125Y51638D02*
X63640D01*
X59125Y46838D02*
X71120D01*
X77089Y52807D01*
Y70042D01*
X27813Y19431D02*
Y24511D01*
X76690Y70441D02*
X77089Y70042D01*
X75033Y70441D02*
X76690D01*
X59138Y52451D02*
X63246D01*
X58674Y72467D02*
X60303D01*
X59176Y48387D02*
X63881D01*
X59125Y48438D02*
X59176Y48387D01*
X58597Y74499D02*
X60303D01*
X59125Y47638D02*
X64630D01*
X64643Y47625D01*
X58547Y76454D02*
X60226D01*
X60303Y76531D01*
X57399Y77547D02*
X60303D01*
X34417Y71263D02*
X34487Y71333D01*
X56642Y53848D02*
Y55695D01*
X57404Y46838D02*
Y55657D01*
X50419Y33797D02*
Y36195D01*
X49035Y35194D02*
Y36519D01*
X54267Y40043D02*
X55055Y40831D01*
X52559Y40043D02*
X54267D01*
X49035Y36519D02*
X52559Y40043D01*
X50419Y33797D02*
X51562Y32654D01*
X61722Y45212D02*
X86821Y20113D01*
X61722Y45212D02*
Y45339D01*
X41402Y55621D02*
Y56896D01*
X40513Y57785D02*
X41402Y56896D01*
X36703Y57785D02*
X40513D01*
X32258Y53340D02*
X36703Y57785D01*
X32258Y46736D02*
Y53340D01*
Y46736D02*
X41402Y37592D01*
Y35194D02*
Y37592D01*
Y25512D02*
Y32654D01*
X42672Y21971D02*
X45212D01*
X40132Y24511D02*
X42672Y21971D01*
X40132Y24511D02*
Y33924D01*
X41402Y35194D01*
X49455Y55708D02*
Y59563D01*
X35829Y38227D02*
X38862Y35194D01*
X8509Y38227D02*
X35829D01*
X45151Y15052D02*
X45185Y15086D01*
X43561Y28575D02*
X48768Y23368D01*
Y15748D02*
Y23368D01*
X48599Y15579D02*
X48768Y15748D01*
X47616Y15579D02*
X48599D01*
X52655Y56152D02*
Y62738D01*
X52483Y55980D02*
X52655Y56152D01*
X52483Y55980D02*
X52705Y55758D01*
X52660Y55713D02*
X52705Y55758D01*
X54941Y70435D02*
X60303D01*
X51055Y66549D02*
X54941Y70435D01*
X43155Y71444D02*
X49784Y64815D01*
X41487Y71444D02*
X43155D01*
X51855Y55708D02*
Y65913D01*
X41487Y71444D02*
Y74845D01*
X40005Y76327D02*
X41487Y74845D01*
X30353Y76327D02*
X40005D01*
X27432Y73406D02*
X30353Y76327D01*
X27432Y71882D02*
Y73406D01*
X51855Y71429D02*
X60281D01*
X60303Y71451D01*
X55855Y55708D02*
Y67412D01*
X57862Y69419D01*
X60303D01*
X41402Y53721D02*
X43688D01*
X44971Y52438D01*
X47785D01*
X37084Y53683D02*
X39205D01*
X39243Y53721D02*
X41402D01*
X36299Y51727D02*
X36322Y51750D01*
X34290Y51727D02*
X36299D01*
X36322Y51750D02*
X36410Y51662D01*
X40075D01*
X45822Y53238D02*
X47785D01*
X45085Y53975D02*
X45822Y53238D01*
X94107Y26924D02*
X97028D01*
X12279Y23114D02*
X12279Y23114D01*
X14631D01*
X40075Y51662D02*
X47761D01*
X46654Y46838D02*
X47785D01*
X45847Y46031D02*
X46654Y46838D01*
X46374Y48438D02*
X47785D01*
X46438Y47638D02*
X47785D01*
X45212Y46412D02*
X46438Y47638D01*
X42196Y50894D02*
X47785D01*
X86821Y18497D02*
Y20113D01*
X57404Y55657D02*
X57455Y55708D01*
X57627Y55880D01*
X92291Y28618D02*
X92334Y28575D01*
X47616Y16879D02*
Y17662D01*
X47292Y17986D02*
X47616Y17662D01*
X45185Y17986D02*
X47292D01*
X38297Y45847D02*
X41091Y43053D01*
X38297Y45847D02*
Y50038D01*
X41783Y50481D02*
X42196Y50894D01*
X38740Y50481D02*
X41783D01*
X42672Y33924D02*
X43942Y32654D01*
X45212Y33924D02*
X46482Y32654D01*
X47761Y33915D02*
X49022Y32654D01*
X47761Y33915D02*
Y37982D01*
X59045Y35195D02*
X59125Y46038D01*
X54115Y35194D02*
Y37859D01*
X56655Y40399D01*
Y35194D02*
Y39243D01*
X46482Y35194D02*
Y40640D01*
X47785Y41943D01*
X49455Y39676D02*
Y44368D01*
X47761Y37982D02*
X49455Y39676D01*
X45212Y33924D02*
Y46412D01*
X45847Y44069D02*
Y46031D01*
Y44069D02*
X46863Y43053D01*
X50255Y40747D02*
X50743Y40259D01*
X51562Y35194D02*
Y36322D01*
X56655Y39243D02*
X57455Y40043D01*
Y44368D01*
X56655Y40399D02*
Y44368D01*
X55055Y40831D02*
Y44368D01*
X50743Y40259D02*
Y40386D01*
X47785Y41943D02*
Y46038D01*
X16531Y21232D02*
Y23114D01*
X16508Y21209D02*
X16531Y21232D01*
X14885Y21186D02*
X14908Y21209D01*
X14885Y19177D02*
Y21186D01*
X12279Y21414D02*
X12484Y21209D01*
X14908D01*
X93764Y28829D02*
X93969Y28624D01*
X97028D01*
X93764Y30711D02*
X93787Y30734D01*
X93764Y28829D02*
Y30711D01*
X50255Y40747D02*
Y44368D01*
X47785Y50838D02*
Y50894D01*
X38297Y50038D02*
X38740Y50481D01*
X39572Y71429D02*
X39587Y71444D01*
X39572Y69412D02*
Y71429D01*
X37743Y71383D02*
X37804Y71444D01*
X39587D01*
X37743Y71383D02*
X37743Y71383D01*
Y69661D02*
Y71383D01*
X37693Y71333D02*
X37743Y71383D01*
X34487Y71333D02*
X37693D01*
X35306Y67578D02*
X35489Y67761D01*
X37743D01*
X35306Y60578D02*
Y67578D01*
X47761Y51662D02*
X47785Y51638D01*
X86821Y10421D02*
Y16597D01*
Y5421D02*
Y10421D01*
X69202Y18813D02*
X69219Y18796D01*
X69202Y18813D02*
Y21082D01*
D31*
X49866Y17907D02*
Y28022D01*
X50927Y29083D01*
X35306Y73333D02*
X37693D01*
X53340Y58154D02*
X53594Y58408D01*
X37743Y73283D02*
X37747Y73279D01*
X39624D01*
X53594D02*
Y76835D01*
X54306Y77547D02*
X55499D01*
X53594Y76835D02*
X54306Y77547D01*
X53594Y58408D02*
Y60578D01*
X53340Y58154D02*
X53455Y58039D01*
X72363Y62257D02*
Y64723D01*
X57227Y75515D02*
X60303D01*
X75033Y79585D02*
X78530D01*
X31750Y71374D02*
Y73295D01*
X29718Y69342D02*
X31750Y71374D01*
Y73295D02*
X33258Y74803D01*
X62203Y61976D02*
X62330Y62103D01*
X67272D01*
X62230Y55626D02*
Y61949D01*
X62203Y61976D02*
X62230Y61949D01*
X35306Y73333D02*
Y74235D01*
X34738Y74803D02*
X35306Y74235D01*
X33258Y74803D02*
X34738D01*
X61722Y30641D02*
Y32654D01*
X60164Y29083D02*
X61722Y30641D01*
X50927Y29083D02*
X60164D01*
X61722Y32654D02*
X68184D01*
X69215Y31623D01*
Y30353D02*
Y31623D01*
X18288Y26524D02*
Y29845D01*
X64402Y18796D02*
Y21082D01*
Y18796D02*
X67619D01*
Y17344D02*
Y18796D01*
Y17344D02*
X68901Y16062D01*
X77089D01*
X51816Y22280D02*
X54737D01*
X57658D01*
X64364Y22314D02*
X64402Y22352D01*
X61849Y22314D02*
X64364D01*
X61815Y22280D02*
X61849Y22314D01*
X57658Y22280D02*
X61815D01*
X69215Y27940D02*
Y30353D01*
X69202Y24892D02*
X69215Y24905D01*
Y27940D01*
X69202Y24892D02*
X77089D01*
X27432Y69342D02*
X29718D01*
X62203Y61976D02*
Y64723D01*
X67272Y62103D02*
X67283Y62114D01*
Y64723D01*
X53455Y50050D02*
Y55708D01*
X37693Y73333D02*
X37743Y73283D01*
X53455Y55708D02*
Y58039D01*
X42533Y50038D02*
X44647D01*
X41617Y49122D02*
X42533Y50038D01*
X40075Y49122D02*
X41617D01*
X44647Y50038D02*
X47785D01*
X53467D02*
X54255Y49250D01*
Y44368D02*
Y49250D01*
X47785Y50038D02*
X53467D01*
X53455Y50050D02*
X53467Y50038D01*
X54083Y41783D02*
X54255Y41955D01*
Y44368D01*
D32*
X59125Y52438D02*
X59138Y52451D01*
X92164Y26967D02*
X92207Y26924D01*
X92164Y26967D02*
Y28829D01*
X56642Y55695D02*
X56655Y55708D01*
X52655D02*
X52660Y55713D01*
X39205Y53683D02*
X39243Y53721D01*
D33*
X49866Y16879D02*
X52170D01*
X49866D02*
Y17907D01*
D34*
X18288Y26524D02*
X20682D01*
X12279D02*
X18288D01*
X93237Y23514D02*
X97028D01*
Y26924D02*
X99187D01*
X10287Y23114D02*
X12279D01*
D35*
X93237Y21317D02*
Y23514D01*
Y21317D02*
X93671Y20883D01*
Y17272D02*
Y20883D01*
D36*
X1270Y81788D02*
Y83312D01*
X2286Y81788D01*
Y83312D01*
X2793Y81788D02*
X3301D01*
X3047D01*
Y82804D01*
X2793D01*
X5079D02*
X4317D01*
X4063Y82550D01*
Y82042D01*
X4317Y81788D01*
X5079D01*
X5841D02*
X6348D01*
X6602Y82042D01*
Y82550D01*
X6348Y82804D01*
X5841D01*
X5587Y82550D01*
Y82042D01*
X5841Y81788D01*
X7110D02*
X7618D01*
X7364D01*
Y83312D01*
X7110D01*
X8634Y82804D02*
X9141D01*
X9395Y82550D01*
Y81788D01*
X8634D01*
X8380Y82042D01*
X8634Y82296D01*
X9395D01*
X9903Y81788D02*
X10665D01*
X10919Y82042D01*
X10665Y82296D01*
X10157D01*
X9903Y82550D01*
X10157Y82804D01*
X10919D01*
X13966Y83312D02*
X12950D01*
Y82550D01*
X13458D01*
X12950D01*
Y81788D01*
X14474Y82804D02*
Y82042D01*
X14728Y81788D01*
X15489D01*
Y82804D01*
X15997D02*
Y81788D01*
Y82296D01*
X16251Y82550D01*
X16505Y82804D01*
X16759D01*
X17521Y81788D02*
X18282D01*
X18536Y82042D01*
X18282Y82296D01*
X17775D01*
X17521Y82550D01*
X17775Y82804D01*
X18536D01*
X19298Y83058D02*
Y82804D01*
X19044D01*
X19552D01*
X19298D01*
Y82042D01*
X19552Y81788D01*
X1270Y84328D02*
X1778D01*
X1524D01*
Y85852D01*
X1270Y85598D01*
X2540D02*
X2793Y85852D01*
X3301D01*
X3555Y85598D01*
Y85344D01*
X3301Y85090D01*
X3555Y84836D01*
Y84582D01*
X3301Y84328D01*
X2793D01*
X2540Y84582D01*
Y84836D01*
X2793Y85090D01*
X2540Y85344D01*
Y85598D01*
X2793Y85090D02*
X3301D01*
X4063Y84328D02*
X4571D01*
X4317D01*
Y85852D01*
X4063Y85598D01*
X6094Y84328D02*
Y85852D01*
X5333Y85090D01*
X6348D01*
X6856Y85598D02*
X7110Y85852D01*
X7618D01*
X7872Y85598D01*
Y84582D01*
X7618Y84328D01*
X7110D01*
X6856Y84582D01*
Y85598D01*
X8380Y84328D02*
Y85344D01*
X8888Y85852D01*
X9395Y85344D01*
Y84328D01*
Y85090D01*
X8380D01*
X11427Y85852D02*
X12442D01*
X11935D01*
Y84328D01*
X13204D02*
X13712D01*
X13966Y84582D01*
Y85090D01*
X13712Y85344D01*
X13204D01*
X12950Y85090D01*
Y84582D01*
X13204Y84328D01*
X14728Y85598D02*
Y85344D01*
X14474D01*
X14982D01*
X14728D01*
Y84582D01*
X14982Y84328D01*
X16505D02*
X15997D01*
X15743Y84582D01*
Y85090D01*
X15997Y85344D01*
X16505D01*
X16759Y85090D01*
Y84836D01*
X15743D01*
X17267Y84328D02*
Y85344D01*
X17521D01*
X17775Y85090D01*
Y84328D01*
Y85090D01*
X18029Y85344D01*
X18282Y85090D01*
Y84328D01*
X20314Y85852D02*
Y84328D01*
X21330D01*
X21837Y85344D02*
Y84582D01*
X22091Y84328D01*
X22853D01*
Y85344D01*
X23361Y84328D02*
Y85344D01*
X23615D01*
X23869Y85090D01*
Y84328D01*
Y85090D01*
X24123Y85344D01*
X24377Y85090D01*
Y84328D01*
X24884D02*
X25392D01*
X25138D01*
Y85344D01*
X24884D01*
X26154Y84328D02*
Y85344D01*
X26916D01*
X27170Y85090D01*
Y84328D01*
X28439D02*
X27931D01*
X27677Y84582D01*
Y85090D01*
X27931Y85344D01*
X28439D01*
X28693Y85090D01*
Y84836D01*
X27677D01*
X29201Y85344D02*
Y84582D01*
X29455Y84328D01*
X30217D01*
Y85344D01*
X30724D02*
X31740Y84328D01*
X31232Y84836D01*
X31740Y85344D01*
X30724Y84328D01*
D37*
X3596Y8270D02*
D03*
X100918Y8382D02*
D03*
X45151Y8762D02*
D03*
D38*
X8596Y8270D02*
D03*
X8509Y38227D02*
D03*
X100918Y43100D02*
D03*
X105918Y8382D02*
D03*
X54671Y8762D02*
D03*
D39*
X12279Y21414D02*
D03*
Y23114D02*
D03*
Y24824D02*
D03*
Y26524D02*
D03*
Y28224D02*
D03*
X97028Y21814D02*
D03*
Y23514D02*
D03*
Y25214D02*
D03*
Y26924D02*
D03*
Y28624D02*
D03*
D40*
X8509Y43227D02*
D03*
X100918Y38100D02*
D03*
D41*
X27432Y61722D02*
D03*
Y64262D02*
D03*
Y69342D02*
D03*
Y66802D02*
D03*
X40075Y51662D02*
D03*
Y49122D02*
D03*
D42*
X27432Y71882D02*
D03*
D43*
X38862Y32654D02*
D03*
X41402D02*
D03*
X38862Y35194D02*
D03*
X41402D02*
D03*
X46482Y32654D02*
D03*
Y35194D02*
D03*
X54102Y32654D02*
D03*
Y35194D02*
D03*
X56642Y32654D02*
D03*
Y35194D02*
D03*
X61722Y32654D02*
D03*
X59182Y35194D02*
D03*
Y32654D02*
D03*
X51562Y35194D02*
D03*
Y32654D02*
D03*
X49022Y35194D02*
D03*
Y32654D02*
D03*
X43942Y35194D02*
D03*
Y32654D02*
D03*
D44*
X61722Y35194D02*
D03*
D45*
X86821Y10421D02*
D03*
Y5421D02*
D03*
D46*
X91821Y10421D02*
D03*
Y5421D02*
D03*
D47*
X50419Y59563D02*
D03*
X53118Y39005D02*
D03*
X107467Y78965D02*
D03*
Y72965D02*
D03*
Y66965D02*
D03*
Y60965D02*
D03*
Y54965D02*
D03*
Y48965D02*
D03*
Y42965D02*
D03*
Y36965D02*
D03*
Y30965D02*
D03*
Y24965D02*
D03*
Y18965D02*
D03*
Y12965D02*
D03*
Y6965D02*
D03*
Y965D02*
D03*
X104467Y78965D02*
D03*
X105967Y75965D02*
D03*
X104467Y72965D02*
D03*
X105967Y69965D02*
D03*
X104467Y66965D02*
D03*
X105967Y63965D02*
D03*
X104467Y60965D02*
D03*
X105967Y57965D02*
D03*
X104467Y54965D02*
D03*
X105967Y51965D02*
D03*
X104467Y48965D02*
D03*
X105967Y45965D02*
D03*
X104467Y42965D02*
D03*
X105967Y39965D02*
D03*
X104467Y36965D02*
D03*
X105967Y33965D02*
D03*
Y27965D02*
D03*
Y21965D02*
D03*
X104467Y18965D02*
D03*
X105967Y15965D02*
D03*
X104467Y12965D02*
D03*
X105967Y9965D02*
D03*
X104467Y6965D02*
D03*
X105967Y3965D02*
D03*
X104467Y965D02*
D03*
X101467Y78965D02*
D03*
X102967Y75965D02*
D03*
X101467Y72965D02*
D03*
X102967Y69965D02*
D03*
X101467Y66965D02*
D03*
X102967Y63965D02*
D03*
X101467Y60965D02*
D03*
X102967Y57965D02*
D03*
X101467Y54965D02*
D03*
X102967Y51965D02*
D03*
X101467Y48965D02*
D03*
X102967Y45965D02*
D03*
Y3965D02*
D03*
X101467Y965D02*
D03*
X98467Y78965D02*
D03*
X99967Y75965D02*
D03*
X98467Y72965D02*
D03*
X99967Y69965D02*
D03*
X98467Y66965D02*
D03*
X99967Y63965D02*
D03*
X98467Y60965D02*
D03*
X99967Y57965D02*
D03*
X98467Y54965D02*
D03*
X99967Y51965D02*
D03*
X98467Y48965D02*
D03*
X99967Y45965D02*
D03*
X98467Y42965D02*
D03*
X99967Y3965D02*
D03*
X98467Y965D02*
D03*
X95467Y78965D02*
D03*
X96967Y75965D02*
D03*
Y63965D02*
D03*
X95467Y60965D02*
D03*
X96967Y57965D02*
D03*
X95467Y54965D02*
D03*
X96967Y51965D02*
D03*
X95467Y48965D02*
D03*
X96967Y45965D02*
D03*
X95467Y42965D02*
D03*
X96967Y39965D02*
D03*
X95467Y36965D02*
D03*
X96967Y33965D02*
D03*
X95467Y30965D02*
D03*
Y24965D02*
D03*
Y18965D02*
D03*
X96967Y15965D02*
D03*
X95467Y12965D02*
D03*
X96967Y9965D02*
D03*
X95467Y6965D02*
D03*
X96967Y3965D02*
D03*
X95467Y965D02*
D03*
X92467Y78965D02*
D03*
X93967Y75965D02*
D03*
Y63965D02*
D03*
X92467Y60965D02*
D03*
X93967Y57965D02*
D03*
X92467Y54965D02*
D03*
X93967Y51965D02*
D03*
X92467Y48965D02*
D03*
X93967Y45965D02*
D03*
X92467Y42965D02*
D03*
X93967Y39965D02*
D03*
X92467Y36965D02*
D03*
X93967Y33965D02*
D03*
X92467Y24965D02*
D03*
X93967Y21965D02*
D03*
Y15965D02*
D03*
X92467Y12965D02*
D03*
X93967Y9965D02*
D03*
X92467Y6965D02*
D03*
X93967Y3965D02*
D03*
X92467Y965D02*
D03*
X89467Y78965D02*
D03*
X90967Y75965D02*
D03*
X89467Y72965D02*
D03*
Y66965D02*
D03*
X90967Y63965D02*
D03*
X89467Y60965D02*
D03*
X90967Y57965D02*
D03*
X89467Y54965D02*
D03*
X90967Y51965D02*
D03*
X89467Y48965D02*
D03*
X90967Y45965D02*
D03*
X89467Y42965D02*
D03*
X90967Y39965D02*
D03*
X89467Y36965D02*
D03*
X90967Y33965D02*
D03*
X89467Y30965D02*
D03*
X90967Y27965D02*
D03*
X89467Y24965D02*
D03*
X90967Y15965D02*
D03*
X89467Y12965D02*
D03*
Y6965D02*
D03*
X90967Y3965D02*
D03*
X89467Y965D02*
D03*
X86467Y78965D02*
D03*
X87967Y75965D02*
D03*
X86467Y72965D02*
D03*
X87967Y69965D02*
D03*
X86467Y66965D02*
D03*
X87967Y63965D02*
D03*
X86467Y60965D02*
D03*
X87967Y57965D02*
D03*
X86467Y54965D02*
D03*
X87967Y51965D02*
D03*
X86467Y48965D02*
D03*
X87967Y45965D02*
D03*
Y39965D02*
D03*
X86467Y36965D02*
D03*
X87967Y33965D02*
D03*
X86467Y30965D02*
D03*
Y24965D02*
D03*
X87967Y3965D02*
D03*
X86467Y965D02*
D03*
X83467Y78965D02*
D03*
X84967Y75965D02*
D03*
X83467Y72965D02*
D03*
X84967Y69965D02*
D03*
X83467Y66965D02*
D03*
X84967Y63965D02*
D03*
X83467Y60965D02*
D03*
X84967Y57965D02*
D03*
X83467Y54965D02*
D03*
X84967Y51965D02*
D03*
X83467Y48965D02*
D03*
X84967Y45965D02*
D03*
X83467Y42965D02*
D03*
X84967Y39965D02*
D03*
X83467Y36965D02*
D03*
X84967Y33965D02*
D03*
X83467Y30965D02*
D03*
X84967Y27965D02*
D03*
X83467Y24965D02*
D03*
X84967Y15965D02*
D03*
X83467Y12965D02*
D03*
X84967Y9965D02*
D03*
X83467Y6965D02*
D03*
X84967Y3965D02*
D03*
X83467Y965D02*
D03*
X80467Y78965D02*
D03*
X81967Y75965D02*
D03*
X80467Y72965D02*
D03*
X81967Y69965D02*
D03*
X80467Y66965D02*
D03*
X81967Y63965D02*
D03*
X80467Y60965D02*
D03*
X81967Y57965D02*
D03*
X80467Y54965D02*
D03*
X81967Y51965D02*
D03*
Y45965D02*
D03*
X80467Y42965D02*
D03*
X81967Y39965D02*
D03*
X80467Y36965D02*
D03*
X81967Y33965D02*
D03*
X80467Y30965D02*
D03*
X81967Y27965D02*
D03*
X80467Y24965D02*
D03*
X81967Y15965D02*
D03*
X80467Y12965D02*
D03*
X81967Y9965D02*
D03*
X80467Y6965D02*
D03*
X81967Y3965D02*
D03*
X80467Y965D02*
D03*
X77467Y78965D02*
D03*
X78967Y75965D02*
D03*
X77467Y72965D02*
D03*
X78967Y69965D02*
D03*
Y63965D02*
D03*
Y57965D02*
D03*
Y51965D02*
D03*
X77467Y48965D02*
D03*
X78967Y45965D02*
D03*
X77467Y42965D02*
D03*
X78967Y39965D02*
D03*
X77467Y36965D02*
D03*
X78967Y33965D02*
D03*
X77467Y30965D02*
D03*
Y12965D02*
D03*
X78967Y9965D02*
D03*
X77467Y6965D02*
D03*
X78967Y3965D02*
D03*
X77467Y965D02*
D03*
X74467Y60965D02*
D03*
X75967Y57965D02*
D03*
X74467Y48965D02*
D03*
X75967Y45965D02*
D03*
X74467Y42965D02*
D03*
X75967Y39965D02*
D03*
X74467Y36965D02*
D03*
X75967Y33965D02*
D03*
X74467Y30965D02*
D03*
X75967Y27965D02*
D03*
X74467Y12965D02*
D03*
X75967Y9965D02*
D03*
X74467Y6965D02*
D03*
X75967Y3965D02*
D03*
X74467Y965D02*
D03*
X71467Y60965D02*
D03*
X72967Y57965D02*
D03*
Y51965D02*
D03*
X71467Y48965D02*
D03*
X72967Y45965D02*
D03*
X71467Y42965D02*
D03*
X72967Y39965D02*
D03*
X71467Y36965D02*
D03*
Y30965D02*
D03*
X72967Y27965D02*
D03*
X71467Y12965D02*
D03*
X72967Y9965D02*
D03*
Y3965D02*
D03*
X71467Y965D02*
D03*
X69967Y57965D02*
D03*
Y51965D02*
D03*
X68467Y48965D02*
D03*
X69967Y45965D02*
D03*
X68467Y42965D02*
D03*
X69967Y39965D02*
D03*
X68467Y36965D02*
D03*
X69967Y33965D02*
D03*
X68467Y12965D02*
D03*
Y965D02*
D03*
X65467Y60965D02*
D03*
X66967Y57965D02*
D03*
X65467Y54965D02*
D03*
X66967Y45965D02*
D03*
X65467Y42965D02*
D03*
Y36965D02*
D03*
X66967Y33965D02*
D03*
Y15965D02*
D03*
X65467Y12965D02*
D03*
X66967Y9965D02*
D03*
X65467Y6965D02*
D03*
X66967Y3965D02*
D03*
X65467Y965D02*
D03*
X63967Y45965D02*
D03*
X62467Y42965D02*
D03*
Y36965D02*
D03*
X63967Y27965D02*
D03*
X62467Y24965D02*
D03*
Y12965D02*
D03*
X63967Y9965D02*
D03*
X62467Y6965D02*
D03*
X63967Y3965D02*
D03*
X62467Y965D02*
D03*
X59467Y60965D02*
D03*
X60967Y57965D02*
D03*
Y39965D02*
D03*
X59467Y30965D02*
D03*
X60967Y27965D02*
D03*
X59467Y24965D02*
D03*
X60967Y15965D02*
D03*
X59467Y12965D02*
D03*
X60967Y9965D02*
D03*
X59467Y6965D02*
D03*
X60967Y3965D02*
D03*
X59467Y965D02*
D03*
X56467Y78965D02*
D03*
Y72965D02*
D03*
Y66965D02*
D03*
Y60965D02*
D03*
X57967Y57965D02*
D03*
X56467Y48965D02*
D03*
Y30965D02*
D03*
X57967Y27965D02*
D03*
X56467Y24965D02*
D03*
X57967Y15965D02*
D03*
X56467Y12965D02*
D03*
X57967Y9965D02*
D03*
X56467Y6965D02*
D03*
X57967Y3965D02*
D03*
X56467Y965D02*
D03*
X53467Y78965D02*
D03*
X54967Y75965D02*
D03*
Y63965D02*
D03*
Y51965D02*
D03*
X53467Y30965D02*
D03*
X54967Y27965D02*
D03*
X53467Y24965D02*
D03*
X54967Y15965D02*
D03*
X53467Y12965D02*
D03*
Y6965D02*
D03*
X54967Y3965D02*
D03*
X53467Y965D02*
D03*
X50467Y78965D02*
D03*
X51967Y75965D02*
D03*
X50467Y66965D02*
D03*
Y48965D02*
D03*
Y30965D02*
D03*
X51967Y27965D02*
D03*
X50467Y12965D02*
D03*
X51967Y9965D02*
D03*
X50467Y6965D02*
D03*
X51967Y3965D02*
D03*
X50467Y965D02*
D03*
X47467Y78965D02*
D03*
X48967Y75965D02*
D03*
Y69965D02*
D03*
Y63965D02*
D03*
X47467Y54965D02*
D03*
Y30965D02*
D03*
X48967Y27965D02*
D03*
X47467Y12965D02*
D03*
X48967Y9965D02*
D03*
X47467Y6965D02*
D03*
X48967Y3965D02*
D03*
X47467Y965D02*
D03*
X44467Y78965D02*
D03*
X45967Y75965D02*
D03*
Y69965D02*
D03*
X44467Y66965D02*
D03*
Y60965D02*
D03*
X45967Y57965D02*
D03*
X44467Y54965D02*
D03*
Y30965D02*
D03*
X45967Y27965D02*
D03*
X44467Y24965D02*
D03*
Y6965D02*
D03*
X45967Y3965D02*
D03*
X44467Y965D02*
D03*
X41467Y78965D02*
D03*
X42967Y75965D02*
D03*
Y69965D02*
D03*
X41467Y66965D02*
D03*
Y60965D02*
D03*
X42967Y57965D02*
D03*
Y45965D02*
D03*
X41467Y12965D02*
D03*
X42967Y9965D02*
D03*
X41467Y6965D02*
D03*
X42967Y3965D02*
D03*
X41467Y965D02*
D03*
X38467Y78965D02*
D03*
Y60965D02*
D03*
X39967Y45965D02*
D03*
X38467Y42965D02*
D03*
X39967Y39965D02*
D03*
X38467Y36965D02*
D03*
Y24965D02*
D03*
X39967Y15965D02*
D03*
X38467Y12965D02*
D03*
X39967Y9965D02*
D03*
X38467Y6965D02*
D03*
X39967Y3965D02*
D03*
X38467Y965D02*
D03*
X35467Y78965D02*
D03*
Y54965D02*
D03*
Y36965D02*
D03*
Y30965D02*
D03*
X36967Y27965D02*
D03*
X35467Y24965D02*
D03*
X36967Y15965D02*
D03*
X35467Y12965D02*
D03*
X36967Y9965D02*
D03*
X35467Y6965D02*
D03*
X36967Y3965D02*
D03*
X35467Y965D02*
D03*
X32467Y78965D02*
D03*
X33967Y69965D02*
D03*
Y57965D02*
D03*
X32467Y54965D02*
D03*
X33967Y45965D02*
D03*
X32467Y42965D02*
D03*
X33967Y39965D02*
D03*
X32467Y36965D02*
D03*
X33967Y33965D02*
D03*
X32467Y30965D02*
D03*
X33967Y27965D02*
D03*
X32467Y24965D02*
D03*
X33967Y15965D02*
D03*
X32467Y12965D02*
D03*
X33967Y9965D02*
D03*
X32467Y6965D02*
D03*
X33967Y3965D02*
D03*
X32467Y965D02*
D03*
X29467Y78965D02*
D03*
Y72965D02*
D03*
Y66965D02*
D03*
Y60965D02*
D03*
X30967Y57965D02*
D03*
X29467Y54965D02*
D03*
X30967Y51965D02*
D03*
X29467Y48965D02*
D03*
X30967Y45965D02*
D03*
X29467Y42965D02*
D03*
X30967Y39965D02*
D03*
X29467Y36965D02*
D03*
X30967Y33965D02*
D03*
X29467Y30965D02*
D03*
X30967Y27965D02*
D03*
X29467Y24965D02*
D03*
X30967Y15965D02*
D03*
X29467Y12965D02*
D03*
X30967Y9965D02*
D03*
X29467Y6965D02*
D03*
X30967Y3965D02*
D03*
X29467Y965D02*
D03*
X26467Y78965D02*
D03*
X27967Y75965D02*
D03*
Y57965D02*
D03*
X26467Y54965D02*
D03*
X27967Y51965D02*
D03*
X26467Y48965D02*
D03*
X27967Y45965D02*
D03*
X26467Y42965D02*
D03*
X27967Y39965D02*
D03*
X26467Y36965D02*
D03*
X27967Y33965D02*
D03*
X26467Y30965D02*
D03*
X27967Y27965D02*
D03*
X26467Y24965D02*
D03*
Y18965D02*
D03*
X27967Y15965D02*
D03*
X26467Y12965D02*
D03*
X27967Y9965D02*
D03*
Y3965D02*
D03*
X26467Y965D02*
D03*
X23467Y78965D02*
D03*
X24967Y75965D02*
D03*
X23467Y72965D02*
D03*
X24967Y69965D02*
D03*
X23467Y66965D02*
D03*
X24967Y63965D02*
D03*
X23467Y60965D02*
D03*
X24967Y57965D02*
D03*
X23467Y54965D02*
D03*
X24967Y51965D02*
D03*
X23467Y48965D02*
D03*
X24967Y45965D02*
D03*
X23467Y42965D02*
D03*
X24967Y39965D02*
D03*
X23467Y36965D02*
D03*
X24967Y33965D02*
D03*
X23467Y30965D02*
D03*
Y18965D02*
D03*
X24967Y15965D02*
D03*
X23467Y12965D02*
D03*
Y965D02*
D03*
X20467Y78965D02*
D03*
X21967Y75965D02*
D03*
X20467Y72965D02*
D03*
X21967Y69965D02*
D03*
X20467Y66965D02*
D03*
X21967Y63965D02*
D03*
X20467Y60965D02*
D03*
X21967Y57965D02*
D03*
X20467Y54965D02*
D03*
X21967Y51965D02*
D03*
X20467Y48965D02*
D03*
X21967Y45965D02*
D03*
X20467Y42965D02*
D03*
X21967Y39965D02*
D03*
X20467Y36965D02*
D03*
X21967Y33965D02*
D03*
X20467Y30965D02*
D03*
X21967Y21965D02*
D03*
X20467Y18965D02*
D03*
X21967Y15965D02*
D03*
X20467Y12965D02*
D03*
X21967Y9965D02*
D03*
X20467Y6965D02*
D03*
X21967Y3965D02*
D03*
X20467Y965D02*
D03*
X17467Y78965D02*
D03*
X18967Y75965D02*
D03*
Y63965D02*
D03*
X17467Y60965D02*
D03*
X18967Y57965D02*
D03*
X17467Y54965D02*
D03*
X18967Y51965D02*
D03*
X17467Y48965D02*
D03*
X18967Y45965D02*
D03*
X17467Y42965D02*
D03*
X18967Y39965D02*
D03*
X17467Y36965D02*
D03*
Y24965D02*
D03*
X18967Y21965D02*
D03*
Y15965D02*
D03*
X17467Y12965D02*
D03*
X18967Y9965D02*
D03*
X17467Y6965D02*
D03*
X18967Y3965D02*
D03*
X17467Y965D02*
D03*
X14467Y78965D02*
D03*
X15967Y75965D02*
D03*
Y63965D02*
D03*
X14467Y60965D02*
D03*
X15967Y57965D02*
D03*
X14467Y54965D02*
D03*
X15967Y51965D02*
D03*
X14467Y48965D02*
D03*
X15967Y45965D02*
D03*
X14467Y42965D02*
D03*
X15967Y39965D02*
D03*
X14467Y36965D02*
D03*
X15967Y33965D02*
D03*
X14467Y30965D02*
D03*
Y24965D02*
D03*
X15967Y15965D02*
D03*
X14467Y12965D02*
D03*
X15967Y9965D02*
D03*
X14467Y6965D02*
D03*
X15967Y3965D02*
D03*
X14467Y965D02*
D03*
X11467Y78965D02*
D03*
X12967Y75965D02*
D03*
X11467Y72965D02*
D03*
Y66965D02*
D03*
X12967Y63965D02*
D03*
X11467Y60965D02*
D03*
X12967Y57965D02*
D03*
X11467Y54965D02*
D03*
X12967Y51965D02*
D03*
X11467Y48965D02*
D03*
X12967Y45965D02*
D03*
X11467Y42965D02*
D03*
X12967Y39965D02*
D03*
Y33965D02*
D03*
Y15965D02*
D03*
Y9965D02*
D03*
X11467Y6965D02*
D03*
X12967Y3965D02*
D03*
X11467Y965D02*
D03*
X8467Y78965D02*
D03*
X9967Y75965D02*
D03*
X8467Y72965D02*
D03*
X9967Y69965D02*
D03*
X8467Y66965D02*
D03*
X9967Y63965D02*
D03*
X8467Y60965D02*
D03*
X9967Y57965D02*
D03*
X8467Y54965D02*
D03*
X9967Y51965D02*
D03*
X8467Y48965D02*
D03*
X9967Y45965D02*
D03*
Y3965D02*
D03*
X8467Y965D02*
D03*
X5467Y78965D02*
D03*
X6967Y75965D02*
D03*
X5467Y72965D02*
D03*
X6967Y69965D02*
D03*
X5467Y66965D02*
D03*
X6967Y63965D02*
D03*
X5467Y60965D02*
D03*
X6967Y57965D02*
D03*
X5467Y54965D02*
D03*
X6967Y51965D02*
D03*
X5467Y48965D02*
D03*
X6967Y45965D02*
D03*
X5467Y42965D02*
D03*
Y36965D02*
D03*
Y24965D02*
D03*
Y12965D02*
D03*
Y6965D02*
D03*
X6967Y3965D02*
D03*
X5467Y965D02*
D03*
X2467Y78965D02*
D03*
X3967Y75965D02*
D03*
X2467Y72965D02*
D03*
X3967Y69965D02*
D03*
X2467Y66965D02*
D03*
X3967Y63965D02*
D03*
X2467Y60965D02*
D03*
X3967Y57965D02*
D03*
X2467Y54965D02*
D03*
X3967Y51965D02*
D03*
X2467Y48965D02*
D03*
X3967Y45965D02*
D03*
X2467Y42965D02*
D03*
X3967Y39965D02*
D03*
X2467Y36965D02*
D03*
X3967Y33965D02*
D03*
X2467Y30965D02*
D03*
Y24965D02*
D03*
Y18965D02*
D03*
X3967Y15965D02*
D03*
X2467Y12965D02*
D03*
X3967Y9965D02*
D03*
Y3965D02*
D03*
X2467Y965D02*
D03*
X39624Y73279D02*
D03*
X53594D02*
D03*
Y60578D02*
D03*
X72363Y62257D02*
D03*
X57227Y75515D02*
D03*
X78530Y79585D02*
D03*
X66294Y49250D02*
D03*
X66267Y62943D02*
D03*
X88646Y32258D02*
D03*
Y19431D02*
D03*
X74422Y54610D02*
D03*
X27813Y24511D02*
D03*
Y19431D02*
D03*
X63246Y52451D02*
D03*
X58674Y72467D02*
D03*
X63881Y48387D02*
D03*
X58597Y74499D02*
D03*
X64643Y47625D02*
D03*
X58547Y76454D02*
D03*
X62230Y55626D02*
D03*
X56642Y53848D02*
D03*
X61722Y45339D02*
D03*
X41402Y25512D02*
D03*
X39385D02*
D03*
X49455Y59563D02*
D03*
X54737Y22280D02*
D03*
X43561Y28575D02*
D03*
X52655Y62738D02*
D03*
X49784Y64815D02*
D03*
X51855Y65913D02*
D03*
Y71429D02*
D03*
X45085Y53975D02*
D03*
X52578Y50927D02*
D03*
X57404Y46838D02*
D03*
X41275Y42926D02*
D03*
X50743Y40386D02*
D03*
X46863Y43053D02*
D03*
D48*
X70000Y7000D02*
D03*
X25000D02*
D03*
X15000Y70000D02*
D03*
X95000D02*
D03*
D49*
X93237Y23514D02*
D03*
X45212Y21971D02*
D03*
X20682Y26524D02*
D03*
X99187Y26924D02*
D03*
X10287Y23114D02*
D03*
D50*
X66018Y69803D02*
D03*
X68299D02*
D03*
X68304Y72089D02*
D03*
X66018D02*
D03*
X67183Y70993D02*
D03*
%TF.MD5,64294e05e9d824763017925347ba87dc*%
M02*
