M48
;Layer_Color=9474304
;FILE_FORMAT=4:3
METRIC,LZ
;TYPE=PLATED
T1F00S00C0.350
T2F00S00C0.711
T3F00S00C1.000
T4F00S00C1.070
T5F00S00C1.100
T6F00S00C1.200
T7F00S00C1.500
T8F00S00C3.500
%
T01
X0002467Y0000965
X0005467
X0008467
X0006967Y0003965
X0003967
X0005467Y0006965
X0003967Y0009965
X0005467Y0012965
X0002467
X0014467
X0017467
X0020467
X0023467
X0026467
X0029467
X0032467
X0035467
X0038467
X0041467
X0042967Y0009965
X0039967
X0036967
X0033967
X0030967
X0027967
X0029467Y0006965
X0032467
X0035467
X0038467
X0041467
X0044467
X0047467
X0045967Y0003965
X0042967
X0039967
X0036967
X0033967
X0030967
X0027967
X0029467Y0000965
X0032467
X0035467
X0038467
X0041467
X0044467
X0047467
Y0012965
X0021967Y0009965
X0018967
X0015967
X0012967
X0014467Y0006965
X0017467
X0020467
X0021967Y0003965
X0018967
X0015967
X0012967
X0009967
X0011467Y0006965
Y0000965
X0014467
X0017467
X0020467
X0023467
X0026467
X0050467
X0053467
X0056467
X0059467
X0062467
X0065467
X0068467
X0071467
X0074467
X0077467
X0080467
X0083467
X0086467
X0087967Y0003965
X0084967
X0081967
X0078967
X0075967
X0072967
X0074467Y0006965
X0077467
X0080467
X0083467
X0084967Y0009965
X0081967
X0078967
X0075967
X0072967
X0074467Y0012965
X0077467
X0080467
X0083467
X0071467
X0068467
X0065467
X0062467
X0059467
X0056467
X0053467
X0050467
X0051967Y0009965
X0048967
X0050467Y0006965
X0053467
X0056467
X0059467
X0062467
X0065467
X0066967Y0009965
X0063967
X0060967
X0057967
Y0003965
X0060967
X0063967
X0066967
X0054967
X0051967
X0048967
X0090967
X0093967
X0096967
X0099967
X0102967
X0105967
X0107467Y0006965
X0104467
X0105967Y0009965
X0107467Y0012965
X0104467
X0095467
X0092467
X0089467
Y0006965
X0092467
X0095467
X0096967Y0009965
X0093967
X0095467Y0000965
X0098467
X0101467
X0104467
X0107467
X0092467
X0089467
X0090967Y0015965
X0093967
X0096967
X0095467Y0018965
X0093967Y0021965
X0095467Y0024965
X0092467
X0089467
X0090967Y0027965
X0089467Y0030965
X0088646Y0032258
X0090967Y0033965
X0093967
X0096967
X0095467Y0036965
X0092467
X0089467
X0090967Y0039965
X0093967
X0096967
X0098467Y0042965
X0095467
X0092467
X0089467
X0090967Y0045965
X0093967
X0096967
X0099967
X0102967
X0105967
X0107467Y0048965
X0104467
X0101467
X0098467
X0095467
X0092467
X0089467
X0090967Y0051965
X0093967
X0096967
X0099967
X0102967
X0105967
X0107467Y0042965
X0104467
X0105967Y0039965
X0107467Y0036965
X0104467
X0105967Y0033965
X0107467Y0030965
X0105967Y0027965
X0107467Y0024965
X0105967Y0021965
X0107467Y0018965
X0104467
X0105967Y0015965
X0088646Y0019431
X0095467Y0030965
X0086467
X0083467
X0080467
X0077467
X0074467
X0071467
X0072967Y0027965
X0075967
X0081967
X0084967
X0086467Y0024965
X0083467
X0080467
X0081967Y0033965
X0084967
X0087967
X0086467Y0036965
X0083467
X0080467
X0077467
X0074467
X0071467
X0068467
X0065467
X0062467
X0060967Y0039965
X0062467Y0042965
X0065467
X0068467
X0071467
X0074467
X0077467
X0080467
X0083467
X0084967Y0045965
X0087967
X0086467Y0048965
X0083467
X0084967Y0051965
X0087967
X0081967
X0078967
X0077467Y0048965
X0074467
X0071467
X0068467
X0066294Y004925
X0063881Y0048387
X0064643Y0047625
X0063967Y0045965
X0061722Y0045339
X0057404Y0046838
X0056467Y0048965
X0054967Y0051965
X0052578Y0050927
X0050467Y0048965
X0050743Y0040386
X0053118Y0039005
X0053467Y0030965
X0056467
X0059467
X0060967Y0027965
X0063967
X0062467Y0024965
X0059467
X0056467
X0053467
X0054737Y002228
X0054967Y0027965
X0057967
X0051967
X0048967
X0050467Y0030965
X0066967Y0033965
X0069967
X0075967
X0078967
Y0039965
X0081967
X0084967
X0087967
X0081967Y0045965
X0078967
X0075967
X0072967
X0069967
X0066967
X0069967Y0051965
X0072967
X0063246Y0052451
X0069967Y0039965
X0072967
X0075967
X0081967Y0015965
X0084967
X0066967
X0060967
X0057967
X0054967
X0039967
X0036967
X0033967
X0030967
X0027967
X0024967
X0021967
X0018967
X0015967
X0012967
X0020467Y0018965
X0023467
X0026467
X0027813Y0019431
Y0024511
X0026467Y0024965
X0029467
X0032467
X0035467
X0038467
X0039385Y0025512
X0041402
X0044467Y0024965
X0045967Y0027965
X0043561Y0028575
X0044467Y0030965
X0047467
X0035467
X0032467
X0029467
X0026467
X0023467
X0020467
X0021967Y0033965
X0024967
X0027967
X0030967
X0033967
X0035467Y0036965
X0038467
X0039967Y0039965
X0041275Y0042926
X0038467Y0042965
X0039967Y0045965
X0042967
X0046863Y0043053
X0032467Y0042965
X0029467
X0026467
X0023467
X0020467
X0017467
X0014467
X0011467
X0012967Y0045965
X0015967
X0018967
X0021967
X0024967
X0027967
X0030967
X0033967
Y0039965
X0030967
X0027967
X0024967
X0021967
X0018967
X0015967
X0012967
X0014467Y0036965
X0017467
X0020467
X0023467
X0026467
X0029467
X0032467
X0033967Y0027965
X0036967
X0030967
X0027967
X0021967Y0021965
X0018967
X0017467Y0024965
X0014467
Y0030965
X0015967Y0033965
X0012967
X0009967Y0045965
X0011467Y0048965
X0014467
X0017467
X0020467
X0023467
X0026467
X0029467
X0030967Y0051965
X0027967
X0024967
X0021967
X0018967
X0015967
X0012967
X0009967
X0006967
X0003967
X0005467Y0048965
X0008467
X0006967Y0045965
X0003967
X0005467Y0042965
X0002467
X0003967Y0039965
X0005467Y0036965
X0002467
X0003967Y0033965
X0002467Y0030965
Y0024965
X0005467
X0002467Y0018965
X0003967Y0015965
X0002467Y0048965
Y0054965
X0005467
X0008467
X0006967Y0057965
X0003967
X0005467Y0060965
X0008467
X0006967Y0063965
X0003967
X0005467Y0066965
X0008467
X0006967Y0069965
X0003967
X0005467Y0072965
X0008467
X0006967Y0075965
X0003967
X0005467Y0078965
X0008467
X0002467
Y0072965
Y0066965
Y0060965
X0011467
X0014467
X0017467
X0020467
X0023467
X0024967Y0063965
X0021967
X0018967
X0015967
X0012967
X0009967
X0011467Y0066965
X0009967Y0069965
X0011467Y0072965
X0012967Y0075965
X0015967
X0018967
X0021967
X0024967
X0027967
X0029467Y0078965
X0032467
X0035467
X0038467
X0041467
X0044467
X0047467
X0045967Y0075965
X0042967
Y0069965
X0045967
X0044467Y0066965
X0041467
Y0060965
X0044467
X0045967Y0057965
X0042967
X0044467Y0054965
X0045085Y0053975
X0047467Y0054965
X0035467
X0032467
X0029467
X0026467
X0023467
X0020467
X0017467
X0014467
X0011467
X0012967Y0057965
X0015967
X0018967
X0021967
X0024967
X0027967
X0030967
X0033967
X0038467Y0060965
X0029467
Y0066965
Y0072965
X0023467
X0020467
X0021967Y0069965
X0024967
X0023467Y0066965
X0020467
Y0078965
X0023467
X0026467
X0017467
X0014467
X0011467
X0009967Y0075965
Y0057965
X0033967Y0069965
X0039624Y0073279
X0048967Y0075965
X0051967
X0054967
X0057227Y0075515
X0058547Y0076454
X0058597Y0074499
X0058674Y0072467
X0056467Y0072965
X0053594Y0073279
X0051855Y0071429
X0048967Y0069965
X0050467Y0066965
X0051855Y0065913
X0049784Y0064815
X0048967Y0063965
X0049455Y0059563
X0050419
X0053594Y0060578
X0052655Y0062738
X0054967Y0063965
X0056467Y0066965
Y0060965
X0059467
X0060967Y0057965
X0057967
X0056642Y0053848
X006223Y0055626
X0065467Y0054965
X0066967Y0057965
X0069967
X0072967
X0075967
X0078967
X0081967
X0084967
X0087967
X0086467Y0060965
X0083467
X0080467
X0081967Y0063965
X0084967
X0087967
X0086467Y0066965
X0083467
X0080467
X0081967Y0069965
X0084967
X0087967
X0086467Y0072965
X0083467
X0080467
X0077467
X0078967Y0075965
X0081967
X0084967
X0087967
X0086467Y0078965
X0083467
X0080467
X007853Y0079585
X0077467Y0078965
X0078967Y0069965
Y0063965
X0074467Y0060965
X0071467
X0072363Y0062257
X0066267Y0062943
X0065467Y0060965
X0074422Y005461
X0080467Y0054965
X0083467
X0086467
X0056467Y0078965
X0053467
X0050467
X0089467
X0092467
X0095467
X0098467
X0101467
X0104467
X0107467
X0105967Y0075965
X0102967
X0099967
X0096967
X0093967
X0090967
X0089467Y0072965
Y0066965
X0090967Y0063965
X0093967
X0096967
X0099967
X0102967
X0105967
X0107467Y0066965
X0104467
X0101467
X0098467
X0099967Y0069965
X0102967
X0105967
X0107467Y0072965
X0104467
X0101467
X0098467
Y0060965
X0101467
X0104467
X0107467
X0105967Y0057965
X0102967
X0099967
X0096967
X0093967
X0090967
X0092467Y0060965
X0095467
Y0054965
X0098467
X0101467
X0104467
X0107467
X0092467
X0089467
Y0060965
T02
X0066018Y0069803
X0068299
X0068304Y0072089
X0067183Y0070993
X0066018Y0072089
T03
X0093237Y0023514
X0099187Y0026924
X0045212Y0021971
X0020682Y0026524
X0010287Y0023114
X0040075Y0049122
Y0051662
T04
X0097028Y0021814
Y0023514
Y0025214
Y0026924
Y0028624
X0012279Y0028224
Y0026524
Y0024824
Y0023114
Y0021414
T05
X0049022Y0032654
X0051562
X0054102
Y0035194
X0056642
Y0032654
X0059182
X0061722
Y0035194
X0059182
X0051562
X0049022
X0046482
Y0032654
X0043942
X0041402
X0038862
Y0035194
X0041402
X0043942
X0027432Y0061722
Y0064262
Y0066802
Y0069342
Y0071882
T06
X0086821Y0005421
Y0010421
X0091821
Y0005421
T07
X0003596Y000827
X0008596
X0045151Y0008762
X0054671
X0100918Y0008382
X0105918
X0100918Y00381
Y00431
X0008509Y0043227
Y0038227
T08
X0025Y0007
X007
X0015Y007
X0095
M30
