%TF.GenerationSoftware,Altium Limited,Altium Designer,18.1.9 (240)*%
G04 Layer_Color=8388736*
%FSLAX43Y43*%
%MOMM*%
%TF.FileFunction,Soldermask,Top*%
%TF.Part,Single*%
G01*
G75*
%TA.AperFunction,SMDPad,CuDef*%
%ADD10R,0.950X1.350*%
%ADD11R,1.150X1.800*%
%ADD12R,0.800X2.500*%
%ADD13R,1.400X2.000*%
%ADD14R,0.800X0.900*%
%ADD15R,1.400X1.050*%
%ADD16R,1.050X1.400*%
%ADD17R,1.350X0.950*%
%ADD18R,1.470X0.550*%
%ADD19R,0.550X1.470*%
%ADD20R,1.900X0.800*%
%ADD21R,0.800X1.900*%
%ADD22R,3.700X3.700*%
%ADD23R,2.500X0.800*%
%ADD24R,1.800X1.150*%
G04:AMPARAMS|DCode=25|XSize=0.4mm|YSize=0.85mm|CornerRadius=0.05mm|HoleSize=0mm|Usage=FLASHONLY|Rotation=270.000|XOffset=0mm|YOffset=0mm|HoleType=Round|Shape=RoundedRectangle|*
%AMROUNDEDRECTD25*
21,1,0.400,0.750,0,0,270.0*
21,1,0.300,0.850,0,0,270.0*
1,1,0.100,-0.375,-0.150*
1,1,0.100,-0.375,0.150*
1,1,0.100,0.375,0.150*
1,1,0.100,0.375,-0.150*
%
%ADD25ROUNDEDRECTD25*%
%ADD26R,2.400X1.800*%
%ADD27R,2.790X2.920*%
%ADD28O,2.200X0.600*%
%TA.AperFunction,ComponentPad*%
%ADD37R,2.250X2.250*%
%ADD38C,2.250*%
%ADD39C,1.470*%
%ADD40R,2.250X2.250*%
%ADD41C,1.600*%
%ADD42R,1.600X1.600*%
%ADD43C,1.650*%
%ADD44R,1.650X1.650*%
%ADD45R,1.800X1.800*%
%ADD46C,1.800*%
%TA.AperFunction,ViaPad*%
%ADD48C,3.500*%
%ADD49C,1.500*%
%ADD50C,1.270*%
D10*
X66205Y50838D02*
D03*
X64605D02*
D03*
X67619Y18796D02*
D03*
X69219D02*
D03*
X39572Y69412D02*
D03*
X41172D02*
D03*
X54083Y41783D02*
D03*
X52483D02*
D03*
X67272Y62103D02*
D03*
X68872D02*
D03*
X62203Y61976D02*
D03*
X60603D02*
D03*
X16508Y21209D02*
D03*
X14908D02*
D03*
X93764Y28829D02*
D03*
X92164D02*
D03*
X55055Y58039D02*
D03*
X53455D02*
D03*
D11*
X69215Y27940D02*
D03*
X66215D02*
D03*
X69215Y30353D02*
D03*
X66215D02*
D03*
D12*
X18288Y29845D02*
D03*
Y33545D02*
D03*
X51816Y22280D02*
D03*
Y25980D02*
D03*
X57658Y22280D02*
D03*
Y25980D02*
D03*
D13*
X35306Y67578D02*
D03*
Y60578D02*
D03*
X32306Y67578D02*
D03*
Y60578D02*
D03*
D14*
X34417Y71263D02*
D03*
X33467Y73263D02*
D03*
X35367D02*
D03*
D15*
X37743Y71383D02*
D03*
Y73283D02*
D03*
X37743Y67761D02*
D03*
Y69661D02*
D03*
X41402Y53721D02*
D03*
Y55621D02*
D03*
X39243D02*
D03*
Y53721D02*
D03*
X36322Y49850D02*
D03*
Y51750D02*
D03*
X86821Y16597D02*
D03*
Y18497D02*
D03*
D16*
X41487Y71444D02*
D03*
X39587D02*
D03*
X57399Y77547D02*
D03*
X55499D02*
D03*
X16531Y23114D02*
D03*
X14631D02*
D03*
X91887Y30734D02*
D03*
X93787D02*
D03*
X92207Y26924D02*
D03*
X94107D02*
D03*
X16785Y19177D02*
D03*
X14885D02*
D03*
D17*
X44647Y50038D02*
D03*
Y48438D02*
D03*
X61849Y23914D02*
D03*
Y22314D02*
D03*
X37084Y53683D02*
D03*
Y55283D02*
D03*
X34290Y51727D02*
D03*
Y50127D02*
D03*
X52170Y16879D02*
D03*
Y15279D02*
D03*
D18*
X59125Y50038D02*
D03*
Y49238D02*
D03*
Y48438D02*
D03*
Y47638D02*
D03*
Y46838D02*
D03*
Y46038D02*
D03*
Y50838D02*
D03*
Y51638D02*
D03*
Y52438D02*
D03*
Y53238D02*
D03*
Y54038D02*
D03*
X47785Y50038D02*
D03*
Y50838D02*
D03*
Y51638D02*
D03*
Y52438D02*
D03*
Y53238D02*
D03*
Y54038D02*
D03*
Y49238D02*
D03*
Y48438D02*
D03*
Y47638D02*
D03*
Y46838D02*
D03*
Y46038D02*
D03*
D19*
X53455Y55708D02*
D03*
X54255D02*
D03*
X55055D02*
D03*
X55855D02*
D03*
X56655D02*
D03*
X57455D02*
D03*
X52655D02*
D03*
X51855D02*
D03*
X51055D02*
D03*
X50255D02*
D03*
X49455D02*
D03*
X53455Y44368D02*
D03*
X52655D02*
D03*
X51855D02*
D03*
X51055D02*
D03*
X50255D02*
D03*
X49455D02*
D03*
X54255D02*
D03*
X55055D02*
D03*
X55855D02*
D03*
X56655D02*
D03*
X57455D02*
D03*
D20*
X75033Y79585D02*
D03*
Y78569D02*
D03*
Y77553D02*
D03*
Y76537D02*
D03*
Y74505D02*
D03*
Y70441D02*
D03*
Y69425D02*
D03*
Y68409D02*
D03*
Y67393D02*
D03*
X60303Y77547D02*
D03*
Y76531D02*
D03*
Y75515D02*
D03*
Y74499D02*
D03*
Y73483D02*
D03*
Y72467D02*
D03*
Y71451D02*
D03*
Y70435D02*
D03*
Y69419D02*
D03*
Y68403D02*
D03*
D21*
X72363Y64723D02*
D03*
X71347D02*
D03*
X70331D02*
D03*
X69315D02*
D03*
X68299D02*
D03*
X67283D02*
D03*
X66267D02*
D03*
X65251D02*
D03*
X62203D02*
D03*
D22*
X67183Y70993D02*
D03*
D23*
X93671Y17272D02*
D03*
X89971D02*
D03*
D24*
X45185Y15086D02*
D03*
Y17986D02*
D03*
D25*
X49866Y15579D02*
D03*
Y16229D02*
D03*
Y16879D02*
D03*
X47616D02*
D03*
Y16229D02*
D03*
Y15579D02*
D03*
D26*
X64402Y14746D02*
D03*
Y18796D02*
D03*
D27*
X77089Y16062D02*
D03*
Y24892D02*
D03*
D28*
X69202Y21082D02*
D03*
Y22352D02*
D03*
Y23622D02*
D03*
Y24892D02*
D03*
X64402Y21082D02*
D03*
Y22352D02*
D03*
Y23622D02*
D03*
Y24892D02*
D03*
D37*
X3596Y8270D02*
D03*
X100918Y8382D02*
D03*
X45151Y8762D02*
D03*
D38*
X8596Y8270D02*
D03*
X8509Y38227D02*
D03*
X100918Y43100D02*
D03*
X105918Y8382D02*
D03*
X54671Y8762D02*
D03*
D39*
X12279Y21414D02*
D03*
Y23114D02*
D03*
Y24824D02*
D03*
Y26524D02*
D03*
Y28224D02*
D03*
X97028Y21814D02*
D03*
Y23514D02*
D03*
Y25214D02*
D03*
Y26924D02*
D03*
Y28624D02*
D03*
D40*
X8509Y43227D02*
D03*
X100918Y38100D02*
D03*
D41*
X27432Y61722D02*
D03*
Y64262D02*
D03*
Y69342D02*
D03*
Y66802D02*
D03*
X40075Y51662D02*
D03*
Y49122D02*
D03*
D42*
X27432Y71882D02*
D03*
D43*
X38862Y32654D02*
D03*
X41402D02*
D03*
X38862Y35194D02*
D03*
X41402D02*
D03*
X46482Y32654D02*
D03*
Y35194D02*
D03*
X54102Y32654D02*
D03*
Y35194D02*
D03*
X56642Y32654D02*
D03*
Y35194D02*
D03*
X61722Y32654D02*
D03*
X59182Y35194D02*
D03*
Y32654D02*
D03*
X51562Y35194D02*
D03*
Y32654D02*
D03*
X49022Y35194D02*
D03*
Y32654D02*
D03*
X43942Y35194D02*
D03*
Y32654D02*
D03*
D44*
X61722Y35194D02*
D03*
D45*
X86821Y10421D02*
D03*
Y5421D02*
D03*
D46*
X91821Y10421D02*
D03*
Y5421D02*
D03*
D48*
X70000Y7000D02*
D03*
X25000D02*
D03*
X15000Y70000D02*
D03*
X95000D02*
D03*
D49*
X93237Y23514D02*
D03*
X45212Y21971D02*
D03*
X20682Y26524D02*
D03*
X99187Y26924D02*
D03*
X10287Y23114D02*
D03*
D50*
X66018Y69803D02*
D03*
X68299D02*
D03*
X68304Y72089D02*
D03*
X66018D02*
D03*
X67183Y70993D02*
D03*
%TF.MD5,2c55b6372c928f3d49122b0bf424568e*%
M02*
